<?xml version="1.0" encoding="utf-8"?>
<!-- Generator: Adobe Illustrator 24.0.3, SVG Export Plug-In . SVG Version: 6.00 Build 0)  -->
<svg version="1.1" id="Lotus" xmlns="http://www.w3.org/2000/svg" xmlns:xlink="http://www.w3.org/1999/xlink" x="0px" y="0px"
	 viewBox="0 0 500 500" style="enable-background:new 0 0 500 500;" xml:space="preserve">
<g>
	<path d="M249.6,235.8c-8.2,0-14.9,6.7-14.9,14.9s6.7,14.9,14.9,14.9c8.2,0,14.9-6.7,14.9-14.9S257.9,235.8,249.6,235.8z
		 M249.6,235.8c-8.2,0-14.9,6.7-14.9,14.9s6.7,14.9,14.9,14.9c8.2,0,14.9-6.7,14.9-14.9S257.9,235.8,249.6,235.8z M300.2,250.7
		c0-8.1-6.5-14.8-14.7-14.9c5.7-5.8,5.6-15.1-0.1-20.9c-5.8-5.8-15.1-5.8-20.9-0.1c-0.1-8.1-6.7-14.7-14.9-14.7
		c-8.1,0-14.8,6.5-14.9,14.7c-5.8-5.7-15.1-5.6-20.9,0.1s-5.8,15.1-0.1,20.9c-8.1,0.1-14.7,6.7-14.7,14.9s6.6,14.8,14.7,14.9
		c-5.7,5.8-5.6,15.1,0.1,20.9c5.8,5.8,15.1,5.8,20.9,0.1c0.1,8.1,6.7,14.7,14.9,14.7c8.1,0,14.8-6.5,14.9-14.7
		c5.8,5.7,15.1,5.6,20.9-0.1c5.8-5.8,5.8-15.1,0.1-20.9C293.7,265.4,300.2,258.8,300.2,250.7z M264.4,265.4
		c-2.9,2.9-4.3,6.6-4.4,10.3c-2.7-2.6-6.3-4.2-10.4-4.2s-7.7,1.6-10.4,4.2c0-3.7-1.5-7.5-4.4-10.3c-2.8-2.8-6.6-4.3-10.3-4.4
		c2.6-2.7,4.2-6.3,4.2-10.4s-1.6-7.7-4.2-10.4c3.7-0.1,7.5-1.5,10.3-4.4c2.9-2.9,4.3-6.6,4.4-10.3c2.7,2.6,6.3,4.2,10.4,4.2
		c4,0,7.7-1.6,10.4-4.2c0,3.7,1.5,7.5,4.4,10.3c2.9,2.9,6.6,4.3,10.3,4.4c-2.6,2.7-4.2,6.3-4.2,10.4s1.6,7.7,4.2,10.4
		C270.9,261.1,267.2,262.5,264.4,265.4z M249.6,235.8c-8.2,0-14.9,6.7-14.9,14.9s6.7,14.9,14.9,14.9c8.2,0,14.9-6.7,14.9-14.9
		S257.9,235.8,249.6,235.8z M249.6,235.8c-8.2,0-14.9,6.7-14.9,14.9s6.7,14.9,14.9,14.9c8.2,0,14.9-6.7,14.9-14.9
		S257.9,235.8,249.6,235.8z M249.6,235.8c-8.2,0-14.9,6.7-14.9,14.9s6.7,14.9,14.9,14.9c8.2,0,14.9-6.7,14.9-14.9
		S257.9,235.8,249.6,235.8z M249.6,235.8c-8.2,0-14.9,6.7-14.9,14.9s6.7,14.9,14.9,14.9c8.2,0,14.9-6.7,14.9-14.9
		S257.9,235.8,249.6,235.8z M249.6,235.8c-8.2,0-14.9,6.7-14.9,14.9s6.7,14.9,14.9,14.9c8.2,0,14.9-6.7,14.9-14.9
		S257.9,235.8,249.6,235.8z M300.2,250.7c0-8.1-6.5-14.8-14.7-14.9c5.7-5.8,5.6-15.1-0.1-20.9c-5.8-5.8-15.1-5.8-20.9-0.1
		c-0.1-8.1-6.7-14.7-14.9-14.7c-8.1,0-14.8,6.5-14.9,14.7c-5.8-5.7-15.1-5.6-20.9,0.1s-5.8,15.1-0.1,20.9
		c-8.1,0.1-14.7,6.7-14.7,14.9s6.6,14.8,14.7,14.9c-5.7,5.8-5.6,15.1,0.1,20.9c5.8,5.8,15.1,5.8,20.9,0.1
		c0.1,8.1,6.7,14.7,14.9,14.7c8.1,0,14.8-6.5,14.9-14.7c5.8,5.7,15.1,5.6,20.9-0.1c5.8-5.8,5.8-15.1,0.1-20.9
		C293.7,265.4,300.2,258.8,300.2,250.7z M264.4,265.4c-2.9,2.9-4.3,6.6-4.4,10.3c-2.7-2.6-6.3-4.2-10.4-4.2s-7.7,1.6-10.4,4.2
		c0-3.7-1.5-7.5-4.4-10.3c-2.8-2.8-6.6-4.3-10.3-4.4c2.6-2.7,4.2-6.3,4.2-10.4s-1.6-7.7-4.2-10.4c3.7-0.1,7.5-1.5,10.3-4.4
		c2.9-2.9,4.3-6.6,4.4-10.3c2.7,2.6,6.3,4.2,10.4,4.2c4,0,7.7-1.6,10.4-4.2c0,3.7,1.5,7.5,4.4,10.3c2.9,2.9,6.6,4.3,10.3,4.4
		c-2.6,2.7-4.2,6.3-4.2,10.4s1.6,7.7,4.2,10.4C270.9,261.1,267.2,262.5,264.4,265.4z M249.6,235.8c-8.2,0-14.9,6.7-14.9,14.9
		s6.7,14.9,14.9,14.9c8.2,0,14.9-6.7,14.9-14.9S257.9,235.8,249.6,235.8z M249.6,235.8c-8.2,0-14.9,6.7-14.9,14.9
		s6.7,14.9,14.9,14.9c8.2,0,14.9-6.7,14.9-14.9S257.9,235.8,249.6,235.8z M249.6,235.8c-8.2,0-14.9,6.7-14.9,14.9
		s6.7,14.9,14.9,14.9c8.2,0,14.9-6.7,14.9-14.9S257.9,235.8,249.6,235.8z M249.6,235.8c-8.2,0-14.9,6.7-14.9,14.9
		s6.7,14.9,14.9,14.9c8.2,0,14.9-6.7,14.9-14.9S257.9,235.8,249.6,235.8z M249.6,235.8c-8.2,0-14.9,6.7-14.9,14.9
		s6.7,14.9,14.9,14.9c8.2,0,14.9-6.7,14.9-14.9S257.9,235.8,249.6,235.8z M300.2,250.7c0-8.1-6.5-14.8-14.7-14.9
		c5.7-5.8,5.6-15.1-0.1-20.9c-5.8-5.8-15.1-5.8-20.9-0.1c-0.1-8.1-6.7-14.7-14.9-14.7c-8.1,0-14.8,6.5-14.9,14.7
		c-5.8-5.7-15.1-5.6-20.9,0.1s-5.8,15.1-0.1,20.9c-8.1,0.1-14.7,6.7-14.7,14.9s6.6,14.8,14.7,14.9c-5.7,5.8-5.6,15.1,0.1,20.9
		c5.8,5.8,15.1,5.8,20.9,0.1c0.1,8.1,6.7,14.7,14.9,14.7c8.1,0,14.8-6.5,14.9-14.7c5.8,5.7,15.1,5.6,20.9-0.1
		c5.8-5.8,5.8-15.1,0.1-20.9C293.7,265.4,300.2,258.8,300.2,250.7z M264.4,265.4c-2.9,2.9-4.3,6.6-4.4,10.3
		c-2.7-2.6-6.3-4.2-10.4-4.2s-7.7,1.6-10.4,4.2c0-3.7-1.5-7.5-4.4-10.3c-2.8-2.8-6.6-4.3-10.3-4.4c2.6-2.7,4.2-6.3,4.2-10.4
		s-1.6-7.7-4.2-10.4c3.7-0.1,7.5-1.5,10.3-4.4c2.9-2.9,4.3-6.6,4.4-10.3c2.7,2.6,6.3,4.2,10.4,4.2c4,0,7.7-1.6,10.4-4.2
		c0,3.7,1.5,7.5,4.4,10.3c2.9,2.9,6.6,4.3,10.3,4.4c-2.6,2.7-4.2,6.3-4.2,10.4s1.6,7.7,4.2,10.4
		C270.9,261.1,267.2,262.5,264.4,265.4z M249.6,235.8c-8.2,0-14.9,6.7-14.9,14.9s6.7,14.9,14.9,14.9c8.2,0,14.9-6.7,14.9-14.9
		S257.9,235.8,249.6,235.8z M436.2,290.3c-2.9-15-7.1-28.3-6.6-43.6c0.6-16.1,15.6-51.3,1.4-64.4c-2.5-2.3-5.5-3.3-8.8-3.4
		c0,0,0,0,0-0.1c1.1-1.2,2-2.5,2.6-4c4.6-11.7-6.7-22.4-14.9-28c-12.6-8.6-25.1-15-35.4-26.2c-10.9-11.8-25.2-47.3-44.6-46.5
		c-3.4,0.1-6.2,1.6-8.6,3.8v-0.1c-0.1-1.6-0.4-3.2-1-4.7c-5-11.5-20.6-11.1-30.4-9.3c-15,2.9-28.3,7.1-43.6,6.6
		c-16.1-0.6-51.3-15.6-64.4-1.3c-2.3,2.5-3.3,5.5-3.4,8.8c0,0,0,0-0.1-0.1c-1.2-1.1-2.5-2-4-2.6c-11.7-4.6-22.4,6.7-28,14.9
		c-8.6,12.6-15,25.1-26.2,35.4c-11.8,10.9-47.3,25.2-46.5,44.6c0.2,3.4,1.6,6.2,3.8,8.6h-0.1c-1.6,0.1-3.2,0.4-4.7,1
		c-11.5,5-11.1,20.6-9.3,30.4c2.9,15,7.1,28.3,6.6,43.6c-0.6,16.1-15.6,51.3-1.4,64.4c2.5,2.3,5.5,3.3,8.8,3.4c0,0,0,0-0.1,0
		c-1.1,1.2-2,2.5-2.6,4c-4.6,11.7,6.7,22.4,14.9,28c12.6,8.6,25.1,15,35.4,26.2c10.9,11.8,25.2,47.4,44.6,46.5
		c3.4-0.1,6.2-1.6,8.6-3.8c0,0,0,0,0,0.1c0.1,1.6,0.4,3.2,1,4.7c5,11.5,20.6,11.1,30.4,9.3c15-2.9,28.3-7.1,43.6-6.6
		c16.1,0.6,51.3,15.6,64.4,1.4c2.3-2.5,3.3-5.5,3.4-8.8c0,0,0,0,0,0c1.2,1.1,2.5,2,4,2.6c11.7,4.6,22.4-6.7,28-14.9
		c8.6-12.6,15-25.1,26.2-35.4c11.8-10.9,47.3-25.2,46.5-44.6c-0.1-3.4-1.6-6.2-3.8-8.6c0,0,0,0,0.1,0c1.6-0.1,3.2-0.4,4.7-1
		C438.5,315.7,438.1,300.1,436.2,290.3z M313.9,117.9c3.1-3.7,7.5-8.4,12.6-8.9c9.1-0.9,15.1,10.7,17.6,17.8
		c3.2,8.9,4.3,17,4.6,26.4c0,0,38.9,0.8,43.9,17.7c1.3,4.5-3.1,9.1-6,11.9c-5.7,5.5-12.5,9.8-19.3,13.8
		c-9.7,5.6-19.9,10.1-30.1,14.6c-5.1,2.3-10.3,4.5-15.8,5.8c-4.8,1.1-12.4,3.3-15.9-1.4c-3.3-4.5-2.9-12.7-1.2-17.8
		c0,0-5.1,0.8-5.7,0.9c-3.3,0.5-7,0.2-10-1.4c-3-1.6-5.1-4.7-5.3-8.1c-0.4-8.3,2.6-16.3,5.5-23.9C295,148.9,302.6,131.3,313.9,117.9
		z M307.8,250c0,31.9-25.9,57.8-57.8,57.8s-57.8-25.9-57.8-57.8s25.9-57.8,57.8-57.8S307.8,218.1,307.8,250z M203.8,96.2
		c5.9-7.1,18.2-3.2,25,0.1c8.5,4.1,15.1,9,21.9,15.4c0,0,28.1-26.9,43.5-18.5c4.1,2.2,4.2,8.6,4.1,12.7c-0.2,7.9-1.9,15.8-3.9,23.4
		c-2.9,10.9-6.9,21.2-10.9,31.7c-2,5.2-4.1,10.5-7.1,15.3c-2.5,4.2-6.4,11.1-12.3,10.2c-5.5-0.8-11-7-13.4-11.7c0,0-3.1,4.2-3.4,4.6
		c-2,2.7-4.8,5.1-8.1,6c-3.2,0.9-6.9,0.3-9.5-2c-6.2-5.6-9.6-13.4-13-20.8c-7.1-15.9-14.2-33.7-15.7-51.1
		C200.7,106.6,200.5,100.1,203.8,96.2z M125.7,156.2c8.9-3.1,17-4.3,26.4-4.6c0,0,0.8-38.9,17.7-43.9c4.5-1.3,9.1,3.2,11.9,6
		c5.5,5.7,9.8,12.5,13.7,19.3c5.6,9.7,10.1,19.9,14.7,30.1c2.2,5.1,4.5,10.3,5.8,15.8c1.1,4.8,3.3,12.4-1.4,15.9
		c-4.5,3.3-12.7,2.9-17.8,1.2c0,0,0.8,5.1,0.9,5.7c0.5,3.3,0.2,7-1.4,10c-1.6,3-4.7,5.1-8.1,5.3c-8.3,0.4-16.3-2.6-23.9-5.5
		c-16.3-6.2-33.8-13.8-47.2-25.1c-3.7-3.1-8.4-7.5-8.9-12.6C107.1,164.7,118.6,158.7,125.7,156.2z M95.1,296.6
		c-7.1-5.9-3.2-18.2,0.1-25c4.1-8.5,9-15.1,15.4-21.9c0,0-26.9-28.1-18.5-43.5c2.2-4.1,8.7-4.2,12.7-4.1c7.9,0.1,15.8,1.9,23.4,3.9
		c10.9,2.9,21.2,6.9,31.7,10.9c5.2,2,10.5,4.1,15.3,7.1c4.2,2.6,11.1,6.4,10.2,12.3c-0.8,5.5-7,11.1-11.7,13.4c0,0,4.2,3.1,4.6,3.4
		c2.7,2,5.1,4.8,6,8.1c0.9,3.2,0.3,6.9-2,9.5c-5.6,6.2-13.4,9.6-20.8,13c-15.9,7.1-33.7,14.2-51.1,15.7
		C105.5,299.6,99,299.9,95.1,296.6z M185.4,383.5c-3.1,3.7-7.5,8.4-12.6,8.9c-9.1,0.9-15.1-10.6-17.6-17.8c-3.2-8.9-4.3-17-4.6-26.4
		c0,0-38.9-0.8-43.9-17.7c-1.3-4.5,3.2-9.1,6-11.9c5.7-5.5,12.5-9.8,19.3-13.7c9.7-5.6,19.9-10.1,30.1-14.7
		c5.1-2.2,10.3-4.5,15.8-5.8c4.8-1.1,12.4-3.3,15.9,1.5c3.3,4.5,2.9,12.7,1.2,17.8c0,0,5.1-0.8,5.7-0.9c3.3-0.5,7-0.2,10,1.4
		c3,1.6,5.1,4.7,5.3,8.1c0.4,8.3-2.6,16.3-5.5,23.9C204.3,352.5,196.7,370.1,185.4,383.5z M295.5,405.3c-5.9,7.1-18.2,3.1-25-0.1
		c-8.5-4.1-15.1-9-21.9-15.4c0,0-28.1,26.9-43.5,18.5c-4.1-2.2-4.2-8.6-4.1-12.7c0.1-7.9,1.9-15.8,3.9-23.4
		c2.9-10.9,6.9-21.2,10.9-31.7c2-5.2,4.1-10.5,7.1-15.3c2.6-4.2,6.4-11.1,12.3-10.2c5.5,0.8,11,7,13.4,11.7c0,0,3.1-4.2,3.4-4.6
		c2-2.7,4.8-5.1,8.1-6c3.2-0.9,6.9-0.3,9.5,2c6.2,5.6,9.6,13.4,13,20.8c7.1,15.9,14.2,33.7,15.7,51.1
		C298.5,394.9,298.8,401.3,295.5,405.3z M373.6,345.2c-8.9,3.1-17,4.3-26.4,4.6c0,0-0.8,38.9-17.7,43.9c-4.5,1.3-9.1-3.1-11.9-6
		c-5.5-5.7-9.8-12.5-13.7-19.3c-5.6-9.7-10.1-19.9-14.7-30.1c-2.3-5.1-4.5-10.3-5.8-15.8c-1.1-4.8-3.3-12.4,1.5-15.9
		c4.5-3.3,12.7-2.9,17.8-1.2c0,0-0.8-5.1-0.9-5.7c-0.5-3.3-0.2-7,1.4-10c1.6-3,4.7-5.1,8.1-5.3c8.3-0.4,16.3,2.6,23.9,5.5
		c16.2,6.2,33.8,13.8,47.2,25c3.7,3.1,8.4,7.5,8.9,12.6C392.2,336.7,380.7,342.7,373.6,345.2z M407.2,295.3
		c-2.2,4.1-8.6,4.2-12.6,4.1c-7.9-0.1-15.8-1.9-23.4-3.9c-10.9-2.9-21.2-6.9-31.7-11c-5.2-2-10.5-4.1-15.3-7.1
		c-4.2-2.5-11.1-6.4-10.2-12.2c0.8-5.5,7-11.1,11.7-13.4c0,0-4.2-3.1-4.6-3.4c-2.7-2-5.1-4.8-6-8.1c-1-3.2-0.3-6.9,2-9.5
		c5.5-6.2,13.4-9.6,20.8-13c15.9-7.1,33.7-14.2,51.1-15.7c4.8-0.4,11.3-0.7,15.2,2.6c7.1,5.9,3.1,18.2-0.1,25
		c-4.1,8.5-9,15.1-15.4,21.9C388.7,251.8,415.6,279.9,407.2,295.3z M285.4,214.9c-5.8-5.8-15.1-5.8-20.9-0.1
		c-0.1-8.1-6.7-14.7-14.9-14.7c-8.1,0-14.8,6.5-14.9,14.7c-5.8-5.7-15.1-5.6-20.9,0.1s-5.8,15.1-0.1,20.9
		c-8.1,0.1-14.7,6.7-14.7,14.9c0,8.2,6.6,14.8,14.7,14.9c-5.7,5.8-5.6,15.1,0.1,20.9c5.8,5.8,15.1,5.8,20.9,0.1
		c0.1,8.1,6.7,14.7,14.9,14.7c8.1,0,14.8-6.5,14.9-14.7c5.8,5.7,15.1,5.6,20.9-0.1c5.8-5.8,5.8-15.1,0.1-20.9
		c8.1-0.1,14.7-6.7,14.7-14.9s-6.5-14.8-14.7-14.9C291.2,230,291.2,220.6,285.4,214.9z M264.4,265.4c-2.9,2.9-4.3,6.6-4.4,10.3
		c-2.7-2.6-6.3-4.2-10.4-4.2s-7.7,1.6-10.4,4.2c0-3.7-1.5-7.5-4.4-10.3c-2.8-2.8-6.6-4.3-10.3-4.4c2.6-2.7,4.2-6.3,4.2-10.4
		s-1.6-7.7-4.2-10.4c3.7-0.1,7.5-1.5,10.3-4.4c2.9-2.9,4.3-6.6,4.4-10.3c2.7,2.6,6.3,4.2,10.4,4.2c4,0,7.7-1.6,10.4-4.2
		c0,3.7,1.5,7.5,4.4,10.3c2.9,2.9,6.6,4.3,10.3,4.4c-2.6,2.7-4.2,6.3-4.2,10.4s1.6,7.7,4.2,10.4
		C270.9,261.1,267.2,262.5,264.4,265.4z M249.6,235.8c-8.2,0-14.9,6.7-14.9,14.9s6.7,14.9,14.9,14.9c8.2,0,14.9-6.7,14.9-14.9
		S257.9,235.8,249.6,235.8z M436.2,290.3c-2.9-15-7.1-28.3-6.6-43.6c0.6-16.1,15.6-51.3,1.4-64.4c-2.5-2.3-5.5-3.3-8.8-3.4
		c0,0,0,0,0-0.1c1.1-1.2,2-2.5,2.6-4c4.6-11.7-6.7-22.4-14.9-28c-12.6-8.6-25.1-15-35.4-26.2c-10.9-11.8-25.2-47.3-44.6-46.5
		c-3.4,0.1-6.2,1.6-8.6,3.8v-0.1c-0.1-1.6-0.4-3.2-1-4.7c-5-11.5-20.6-11.1-30.4-9.3c-15,2.9-28.3,7.1-43.6,6.6
		c-16.1-0.6-51.3-15.6-64.4-1.3c-2.3,2.5-3.3,5.5-3.4,8.8c0,0,0,0-0.1-0.1c-1.2-1.1-2.5-2-4-2.6c-11.7-4.6-22.4,6.7-28,14.9
		c-8.6,12.6-15,25.1-26.2,35.4c-11.8,10.9-47.3,25.2-46.5,44.6c0.2,3.4,1.6,6.2,3.8,8.6h-0.1c-1.6,0.1-3.2,0.4-4.7,1
		c-11.5,5-11.1,20.6-9.3,30.4c2.9,15,7.1,28.3,6.6,43.6c-0.6,16.1-15.6,51.3-1.4,64.4c2.5,2.3,5.5,3.3,8.8,3.4c0,0,0,0-0.1,0
		c-1.1,1.2-2,2.5-2.6,4c-4.6,11.7,6.7,22.4,14.9,28c12.6,8.6,25.1,15,35.4,26.2c10.9,11.8,25.2,47.4,44.6,46.5
		c3.4-0.1,6.2-1.6,8.6-3.8c0,0,0,0,0,0.1c0.1,1.6,0.4,3.2,1,4.7c5,11.5,20.6,11.1,30.4,9.3c15-2.9,28.3-7.1,43.6-6.6
		c16.1,0.6,51.3,15.6,64.4,1.4c2.3-2.5,3.3-5.5,3.4-8.8c0,0,0,0,0,0c1.2,1.1,2.5,2,4,2.6c11.7,4.6,22.4-6.7,28-14.9
		c8.6-12.6,15-25.1,26.2-35.4c11.8-10.9,47.3-25.2,46.5-44.6c-0.1-3.4-1.6-6.2-3.8-8.6c0,0,0,0,0.1,0c1.6-0.1,3.2-0.4,4.7-1
		C438.5,315.7,438.1,300.1,436.2,290.3z M313.9,117.9c3.1-3.7,7.5-8.4,12.6-8.9c9.1-0.9,15.1,10.7,17.6,17.8
		c3.2,8.9,4.3,17,4.6,26.4c0,0,38.9,0.8,43.9,17.7c1.3,4.5-3.1,9.1-6,11.9c-5.7,5.5-12.5,9.8-19.3,13.8
		c-9.7,5.6-19.9,10.1-30.1,14.6c-5.1,2.3-10.3,4.5-15.8,5.8c-4.8,1.1-12.4,3.3-15.9-1.4c-3.3-4.5-2.9-12.7-1.2-17.8
		c0,0-5.1,0.8-5.7,0.9c-3.3,0.5-7,0.2-10-1.4c-3-1.6-5.1-4.7-5.3-8.1c-0.4-8.3,2.6-16.3,5.5-23.9C295,148.9,302.6,131.3,313.9,117.9
		z M307.8,250c0,31.9-25.9,57.8-57.8,57.8s-57.8-25.9-57.8-57.8s25.9-57.8,57.8-57.8S307.8,218.1,307.8,250z M203.8,96.2
		c5.9-7.1,18.2-3.2,25,0.1c8.5,4.1,15.1,9,21.9,15.4c0,0,28.1-26.9,43.5-18.5c4.1,2.2,4.2,8.6,4.1,12.7c-0.2,7.9-1.9,15.8-3.9,23.4
		c-2.9,10.9-6.9,21.2-10.9,31.7c-2,5.2-4.1,10.5-7.1,15.3c-2.5,4.2-6.4,11.1-12.3,10.2c-5.5-0.8-11-7-13.4-11.7c0,0-3.1,4.2-3.4,4.6
		c-2,2.7-4.8,5.1-8.1,6c-3.2,0.9-6.9,0.3-9.5-2c-6.2-5.6-9.6-13.4-13-20.8c-7.1-15.9-14.2-33.7-15.7-51.1
		C200.7,106.6,200.5,100.1,203.8,96.2z M125.7,156.2c8.9-3.1,17-4.3,26.4-4.6c0,0,0.8-38.9,17.7-43.9c4.5-1.3,9.1,3.2,11.9,6
		c5.5,5.7,9.8,12.5,13.7,19.3c5.6,9.7,10.1,19.9,14.7,30.1c2.2,5.1,4.5,10.3,5.8,15.8c1.1,4.8,3.3,12.4-1.4,15.9
		c-4.5,3.3-12.7,2.9-17.8,1.2c0,0,0.8,5.1,0.9,5.7c0.5,3.3,0.2,7-1.4,10c-1.6,3-4.7,5.1-8.1,5.3c-8.3,0.4-16.3-2.6-23.9-5.5
		c-16.3-6.2-33.8-13.8-47.2-25.1c-3.7-3.1-8.4-7.5-8.9-12.6C107.1,164.7,118.6,158.7,125.7,156.2z M95.1,296.6
		c-7.1-5.9-3.2-18.2,0.1-25c4.1-8.5,9-15.1,15.4-21.9c0,0-26.9-28.1-18.5-43.5c2.2-4.1,8.7-4.2,12.7-4.1c7.9,0.1,15.8,1.9,23.4,3.9
		c10.9,2.9,21.2,6.9,31.7,10.9c5.2,2,10.5,4.1,15.3,7.1c4.2,2.6,11.1,6.4,10.2,12.3c-0.8,5.5-7,11.1-11.7,13.4c0,0,4.2,3.1,4.6,3.4
		c2.7,2,5.1,4.8,6,8.1c0.9,3.2,0.3,6.9-2,9.5c-5.6,6.2-13.4,9.6-20.8,13c-15.9,7.1-33.7,14.2-51.1,15.7
		C105.5,299.6,99,299.9,95.1,296.6z M185.4,383.5c-3.1,3.7-7.5,8.4-12.6,8.9c-9.1,0.9-15.1-10.6-17.6-17.8c-3.2-8.9-4.3-17-4.6-26.4
		c0,0-38.9-0.8-43.9-17.7c-1.3-4.5,3.2-9.1,6-11.9c5.7-5.5,12.5-9.8,19.3-13.7c9.7-5.6,19.9-10.1,30.1-14.7
		c5.1-2.2,10.3-4.5,15.8-5.8c4.8-1.1,12.4-3.3,15.9,1.5c3.3,4.5,2.9,12.7,1.2,17.8c0,0,5.1-0.8,5.7-0.9c3.3-0.5,7-0.2,10,1.4
		c3,1.6,5.1,4.7,5.3,8.1c0.4,8.3-2.6,16.3-5.5,23.9C204.3,352.5,196.7,370.1,185.4,383.5z M295.5,405.3c-5.9,7.1-18.2,3.1-25-0.1
		c-8.5-4.1-15.1-9-21.9-15.4c0,0-28.1,26.9-43.5,18.5c-4.1-2.2-4.2-8.6-4.1-12.7c0.1-7.9,1.9-15.8,3.9-23.4
		c2.9-10.9,6.9-21.2,10.9-31.7c2-5.2,4.1-10.5,7.1-15.3c2.6-4.2,6.4-11.1,12.3-10.2c5.5,0.8,11,7,13.4,11.7c0,0,3.1-4.2,3.4-4.6
		c2-2.7,4.8-5.1,8.1-6c3.2-0.9,6.9-0.3,9.5,2c6.2,5.6,9.6,13.4,13,20.8c7.1,15.9,14.2,33.7,15.7,51.1
		C298.5,394.9,298.8,401.3,295.5,405.3z M373.6,345.2c-8.9,3.1-17,4.3-26.4,4.6c0,0-0.8,38.9-17.7,43.9c-4.5,1.3-9.1-3.1-11.9-6
		c-5.5-5.7-9.8-12.5-13.7-19.3c-5.6-9.7-10.1-19.9-14.7-30.1c-2.3-5.1-4.5-10.3-5.8-15.8c-1.1-4.8-3.3-12.4,1.5-15.9
		c4.5-3.3,12.7-2.9,17.8-1.2c0,0-0.8-5.1-0.9-5.7c-0.5-3.3-0.2-7,1.4-10c1.6-3,4.7-5.1,8.1-5.3c8.3-0.4,16.3,2.6,23.9,5.5
		c16.2,6.2,33.8,13.8,47.2,25c3.7,3.1,8.4,7.5,8.9,12.6C392.2,336.7,380.7,342.7,373.6,345.2z M407.2,295.3
		c-2.2,4.1-8.6,4.2-12.6,4.1c-7.9-0.1-15.8-1.9-23.4-3.9c-10.9-2.9-21.2-6.9-31.7-11c-5.2-2-10.5-4.1-15.3-7.1
		c-4.2-2.5-11.1-6.4-10.2-12.2c0.8-5.5,7-11.1,11.7-13.4c0,0-4.2-3.1-4.6-3.4c-2.7-2-5.1-4.8-6-8.1c-1-3.2-0.3-6.9,2-9.5
		c5.5-6.2,13.4-9.6,20.8-13c15.9-7.1,33.7-14.2,51.1-15.7c4.8-0.4,11.3-0.7,15.2,2.6c7.1,5.9,3.1,18.2-0.1,25
		c-4.1,8.5-9,15.1-15.4,21.9C388.7,251.8,415.6,279.9,407.2,295.3z M250,4.6C114.4,4.6,4.6,114.4,4.6,250S114.4,495.4,250,495.4
		S495.4,385.5,495.4,250S385.5,4.6,250,4.6z M250,480.1c-127.1,0-230.1-103-230.1-230.1S122.9,19.9,250,19.9s230.1,103,230.1,230.1
		S377.1,480.1,250,480.1z M250,27.9C127.3,27.9,27.9,127.3,27.9,250S127.3,472.1,250,472.1S472.1,372.6,472.1,250
		S372.6,27.9,250,27.9z M250,456.1c-113.8,0-206.1-92.3-206.1-206.1S136.2,43.9,250,43.9S456.1,136.2,456.1,250
		S363.8,456.1,250,456.1z M285.4,214.9c-5.8-5.8-15.1-5.8-20.9-0.1c-0.1-8.1-6.7-14.7-14.9-14.7c-8.1,0-14.8,6.5-14.9,14.7
		c-5.8-5.7-15.1-5.6-20.9,0.1s-5.8,15.1-0.1,20.9c-8.1,0.1-14.7,6.7-14.7,14.9c0,8.2,6.6,14.8,14.7,14.9c-5.7,5.8-5.6,15.1,0.1,20.9
		c5.8,5.8,15.1,5.8,20.9,0.1c0.1,8.1,6.7,14.7,14.9,14.7c8.1,0,14.8-6.5,14.9-14.7c5.8,5.7,15.1,5.6,20.9-0.1
		c5.8-5.8,5.8-15.1,0.1-20.9c8.1-0.1,14.7-6.7,14.7-14.9s-6.5-14.8-14.7-14.9C291.2,230,291.2,220.6,285.4,214.9z M264.4,265.4
		c-2.9,2.9-4.3,6.6-4.4,10.3c-2.7-2.6-6.3-4.2-10.4-4.2s-7.7,1.6-10.4,4.2c0-3.7-1.5-7.5-4.4-10.3c-2.8-2.8-6.6-4.3-10.3-4.4
		c2.6-2.7,4.2-6.3,4.2-10.4s-1.6-7.7-4.2-10.4c3.7-0.1,7.5-1.5,10.3-4.4c2.9-2.9,4.3-6.6,4.4-10.3c2.7,2.6,6.3,4.2,10.4,4.2
		c4,0,7.7-1.6,10.4-4.2c0,3.7,1.5,7.5,4.4,10.3c2.9,2.9,6.6,4.3,10.3,4.4c-2.6,2.7-4.2,6.3-4.2,10.4s1.6,7.7,4.2,10.4
		C270.9,261.1,267.2,262.5,264.4,265.4z M249.6,235.8c-8.2,0-14.9,6.7-14.9,14.9s6.7,14.9,14.9,14.9c8.2,0,14.9-6.7,14.9-14.9
		S257.9,235.8,249.6,235.8z M300.2,250.7c0-8.1-6.5-14.8-14.7-14.9c5.7-5.8,5.6-15.1-0.1-20.9c-5.8-5.8-15.1-5.8-20.9-0.1
		c-0.1-8.1-6.7-14.7-14.9-14.7c-8.1,0-14.8,6.5-14.9,14.7c-5.8-5.7-15.1-5.6-20.9,0.1s-5.8,15.1-0.1,20.9
		c-8.1,0.1-14.7,6.7-14.7,14.9s6.6,14.8,14.7,14.9c-5.7,5.8-5.6,15.1,0.1,20.9c5.8,5.8,15.1,5.8,20.9,0.1
		c0.1,8.1,6.7,14.7,14.9,14.7c8.1,0,14.8-6.5,14.9-14.7c5.8,5.7,15.1,5.6,20.9-0.1c5.8-5.8,5.8-15.1,0.1-20.9
		C293.7,265.4,300.2,258.8,300.2,250.7z M264.4,265.4c-2.9,2.9-4.3,6.6-4.4,10.3c-2.7-2.6-6.3-4.2-10.4-4.2s-7.7,1.6-10.4,4.2
		c0-3.7-1.5-7.5-4.4-10.3c-2.8-2.8-6.6-4.3-10.3-4.4c2.6-2.7,4.2-6.3,4.2-10.4s-1.6-7.7-4.2-10.4c3.7-0.1,7.5-1.5,10.3-4.4
		c2.9-2.9,4.3-6.6,4.4-10.3c2.7,2.6,6.3,4.2,10.4,4.2c4,0,7.7-1.6,10.4-4.2c0,3.7,1.5,7.5,4.4,10.3c2.9,2.9,6.6,4.3,10.3,4.4
		c-2.6,2.7-4.2,6.3-4.2,10.4s1.6,7.7,4.2,10.4C270.9,261.1,267.2,262.5,264.4,265.4z M249.6,235.8c-8.2,0-14.9,6.7-14.9,14.9
		s6.7,14.9,14.9,14.9c8.2,0,14.9-6.7,14.9-14.9S257.9,235.8,249.6,235.8z M436.2,290.3c-2.9-15-7.1-28.3-6.6-43.6
		c0.6-16.1,15.6-51.3,1.4-64.4c-2.5-2.3-5.5-3.3-8.8-3.4c0,0,0,0,0-0.1c1.1-1.2,2-2.5,2.6-4c4.6-11.7-6.7-22.4-14.9-28
		c-12.6-8.6-25.1-15-35.4-26.2c-10.9-11.8-25.2-47.3-44.6-46.5c-3.4,0.1-6.2,1.6-8.6,3.8v-0.1c-0.1-1.6-0.4-3.2-1-4.7
		c-5-11.5-20.6-11.1-30.4-9.3c-15,2.9-28.3,7.1-43.6,6.6c-16.1-0.6-51.3-15.6-64.4-1.3c-2.3,2.5-3.3,5.5-3.4,8.8c0,0,0,0-0.1-0.1
		c-1.2-1.1-2.5-2-4-2.6c-11.7-4.6-22.4,6.7-28,14.9c-8.6,12.6-15,25.1-26.2,35.4c-11.8,10.9-47.3,25.2-46.5,44.6
		c0.2,3.4,1.6,6.2,3.8,8.6h-0.1c-1.6,0.1-3.2,0.4-4.7,1c-11.5,5-11.1,20.6-9.3,30.4c2.9,15,7.1,28.3,6.6,43.6
		c-0.6,16.1-15.6,51.3-1.4,64.4c2.5,2.3,5.5,3.3,8.8,3.4c0,0,0,0-0.1,0c-1.1,1.2-2,2.5-2.6,4c-4.6,11.7,6.7,22.4,14.9,28
		c12.6,8.6,25.1,15,35.4,26.2c10.9,11.8,25.2,47.4,44.6,46.5c3.4-0.1,6.2-1.6,8.6-3.8c0,0,0,0,0,0.1c0.1,1.6,0.4,3.2,1,4.7
		c5,11.5,20.6,11.1,30.4,9.3c15-2.9,28.3-7.1,43.6-6.6c16.1,0.6,51.3,15.6,64.4,1.4c2.3-2.5,3.3-5.5,3.4-8.8c0,0,0,0,0,0
		c1.2,1.1,2.5,2,4,2.6c11.7,4.6,22.4-6.7,28-14.9c8.6-12.6,15-25.1,26.2-35.4c11.8-10.9,47.3-25.2,46.5-44.6
		c-0.1-3.4-1.6-6.2-3.8-8.6c0,0,0,0,0.1,0c1.6-0.1,3.2-0.4,4.7-1C438.5,315.7,438.1,300.1,436.2,290.3z M313.9,117.9
		c3.1-3.7,7.5-8.4,12.6-8.9c9.1-0.9,15.1,10.7,17.6,17.8c3.2,8.9,4.3,17,4.6,26.4c0,0,38.9,0.8,43.9,17.7c1.3,4.5-3.1,9.1-6,11.9
		c-5.7,5.5-12.5,9.8-19.3,13.8c-9.7,5.6-19.9,10.1-30.1,14.6c-5.1,2.3-10.3,4.5-15.8,5.8c-4.8,1.1-12.4,3.3-15.9-1.4
		c-3.3-4.5-2.9-12.7-1.2-17.8c0,0-5.1,0.8-5.7,0.9c-3.3,0.5-7,0.2-10-1.4c-3-1.6-5.1-4.7-5.3-8.1c-0.4-8.3,2.6-16.3,5.5-23.9
		C295,148.9,302.6,131.3,313.9,117.9z M307.8,250c0,31.9-25.9,57.8-57.8,57.8s-57.8-25.9-57.8-57.8s25.9-57.8,57.8-57.8
		S307.8,218.1,307.8,250z M203.8,96.2c5.9-7.1,18.2-3.2,25,0.1c8.5,4.1,15.1,9,21.9,15.4c0,0,28.1-26.9,43.5-18.5
		c4.1,2.2,4.2,8.6,4.1,12.7c-0.2,7.9-1.9,15.8-3.9,23.4c-2.9,10.9-6.9,21.2-10.9,31.7c-2,5.2-4.1,10.5-7.1,15.3
		c-2.5,4.2-6.4,11.1-12.3,10.2c-5.5-0.8-11-7-13.4-11.7c0,0-3.1,4.2-3.4,4.6c-2,2.7-4.8,5.1-8.1,6c-3.2,0.9-6.9,0.3-9.5-2
		c-6.2-5.6-9.6-13.4-13-20.8c-7.1-15.9-14.2-33.7-15.7-51.1C200.7,106.6,200.5,100.1,203.8,96.2z M125.7,156.2
		c8.9-3.1,17-4.3,26.4-4.6c0,0,0.8-38.9,17.7-43.9c4.5-1.3,9.1,3.2,11.9,6c5.5,5.7,9.8,12.5,13.7,19.3c5.6,9.7,10.1,19.9,14.7,30.1
		c2.2,5.1,4.5,10.3,5.8,15.8c1.1,4.8,3.3,12.4-1.4,15.9c-4.5,3.3-12.7,2.9-17.8,1.2c0,0,0.8,5.1,0.9,5.7c0.5,3.3,0.2,7-1.4,10
		c-1.6,3-4.7,5.1-8.1,5.3c-8.3,0.4-16.3-2.6-23.9-5.5c-16.3-6.2-33.8-13.8-47.2-25.1c-3.7-3.1-8.4-7.5-8.9-12.6
		C107.1,164.7,118.6,158.7,125.7,156.2z M95.1,296.6c-7.1-5.9-3.2-18.2,0.1-25c4.1-8.5,9-15.1,15.4-21.9c0,0-26.9-28.1-18.5-43.5
		c2.2-4.1,8.7-4.2,12.7-4.1c7.9,0.1,15.8,1.9,23.4,3.9c10.9,2.9,21.2,6.9,31.7,10.9c5.2,2,10.5,4.1,15.3,7.1
		c4.2,2.6,11.1,6.4,10.2,12.3c-0.8,5.5-7,11.1-11.7,13.4c0,0,4.2,3.1,4.6,3.4c2.7,2,5.1,4.8,6,8.1c0.9,3.2,0.3,6.9-2,9.5
		c-5.6,6.2-13.4,9.6-20.8,13c-15.9,7.1-33.7,14.2-51.1,15.7C105.5,299.6,99,299.9,95.1,296.6z M185.4,383.5
		c-3.1,3.7-7.5,8.4-12.6,8.9c-9.1,0.9-15.1-10.6-17.6-17.8c-3.2-8.9-4.3-17-4.6-26.4c0,0-38.9-0.8-43.9-17.7
		c-1.3-4.5,3.2-9.1,6-11.9c5.7-5.5,12.5-9.8,19.3-13.7c9.7-5.6,19.9-10.1,30.1-14.7c5.1-2.2,10.3-4.5,15.8-5.8
		c4.8-1.1,12.4-3.3,15.9,1.5c3.3,4.5,2.9,12.7,1.2,17.8c0,0,5.1-0.8,5.7-0.9c3.3-0.5,7-0.2,10,1.4c3,1.6,5.1,4.7,5.3,8.1
		c0.4,8.3-2.6,16.3-5.5,23.9C204.3,352.5,196.7,370.1,185.4,383.5z M295.5,405.3c-5.9,7.1-18.2,3.1-25-0.1
		c-8.5-4.1-15.1-9-21.9-15.4c0,0-28.1,26.9-43.5,18.5c-4.1-2.2-4.2-8.6-4.1-12.7c0.1-7.9,1.9-15.8,3.9-23.4
		c2.9-10.9,6.9-21.2,10.9-31.7c2-5.2,4.1-10.5,7.1-15.3c2.6-4.2,6.4-11.1,12.3-10.2c5.5,0.8,11,7,13.4,11.7c0,0,3.1-4.2,3.4-4.6
		c2-2.7,4.8-5.1,8.1-6c3.2-0.9,6.9-0.3,9.5,2c6.2,5.6,9.6,13.4,13,20.8c7.1,15.9,14.2,33.7,15.7,51.1
		C298.5,394.9,298.8,401.3,295.5,405.3z M373.6,345.2c-8.9,3.1-17,4.3-26.4,4.6c0,0-0.8,38.9-17.7,43.9c-4.5,1.3-9.1-3.1-11.9-6
		c-5.5-5.7-9.8-12.5-13.7-19.3c-5.6-9.7-10.1-19.9-14.7-30.1c-2.3-5.1-4.5-10.3-5.8-15.8c-1.1-4.8-3.3-12.4,1.5-15.9
		c4.5-3.3,12.7-2.9,17.8-1.2c0,0-0.8-5.1-0.9-5.7c-0.5-3.3-0.2-7,1.4-10c1.6-3,4.7-5.1,8.1-5.3c8.3-0.4,16.3,2.6,23.9,5.5
		c16.2,6.2,33.8,13.8,47.2,25c3.7,3.1,8.4,7.5,8.9,12.6C392.2,336.7,380.7,342.7,373.6,345.2z M407.2,295.3
		c-2.2,4.1-8.6,4.2-12.6,4.1c-7.9-0.1-15.8-1.9-23.4-3.9c-10.9-2.9-21.2-6.9-31.7-11c-5.2-2-10.5-4.1-15.3-7.1
		c-4.2-2.5-11.1-6.4-10.2-12.2c0.8-5.5,7-11.1,11.7-13.4c0,0-4.2-3.1-4.6-3.4c-2.7-2-5.1-4.8-6-8.1c-1-3.2-0.3-6.9,2-9.5
		c5.5-6.2,13.4-9.6,20.8-13c15.9-7.1,33.7-14.2,51.1-15.7c4.8-0.4,11.3-0.7,15.2,2.6c7.1,5.9,3.1,18.2-0.1,25
		c-4.1,8.5-9,15.1-15.4,21.9C388.7,251.8,415.6,279.9,407.2,295.3z M285.4,214.9c-5.8-5.8-15.1-5.8-20.9-0.1
		c-0.1-8.1-6.7-14.7-14.9-14.7c-8.1,0-14.8,6.5-14.9,14.7c-5.8-5.7-15.1-5.6-20.9,0.1s-5.8,15.1-0.1,20.9
		c-8.1,0.1-14.7,6.7-14.7,14.9c0,8.2,6.6,14.8,14.7,14.9c-5.7,5.8-5.6,15.1,0.1,20.9c5.8,5.8,15.1,5.8,20.9,0.1
		c0.1,8.1,6.7,14.7,14.9,14.7c8.1,0,14.8-6.5,14.9-14.7c5.8,5.7,15.1,5.6,20.9-0.1c5.8-5.8,5.8-15.1,0.1-20.9
		c8.1-0.1,14.7-6.7,14.7-14.9s-6.5-14.8-14.7-14.9C291.2,230,291.2,220.6,285.4,214.9z M264.4,265.4c-2.9,2.9-4.3,6.6-4.4,10.3
		c-2.7-2.6-6.3-4.2-10.4-4.2s-7.7,1.6-10.4,4.2c0-3.7-1.5-7.5-4.4-10.3c-2.8-2.8-6.6-4.3-10.3-4.4c2.6-2.7,4.2-6.3,4.2-10.4
		s-1.6-7.7-4.2-10.4c3.7-0.1,7.5-1.5,10.3-4.4c2.9-2.9,4.3-6.6,4.4-10.3c2.7,2.6,6.3,4.2,10.4,4.2c4,0,7.7-1.6,10.4-4.2
		c0,3.7,1.5,7.5,4.4,10.3c2.9,2.9,6.6,4.3,10.3,4.4c-2.6,2.7-4.2,6.3-4.2,10.4s1.6,7.7,4.2,10.4
		C270.9,261.1,267.2,262.5,264.4,265.4z M249.6,235.8c-8.2,0-14.9,6.7-14.9,14.9s6.7,14.9,14.9,14.9c8.2,0,14.9-6.7,14.9-14.9
		S257.9,235.8,249.6,235.8z M249.6,235.8c-8.2,0-14.9,6.7-14.9,14.9s6.7,14.9,14.9,14.9c8.2,0,14.9-6.7,14.9-14.9
		S257.9,235.8,249.6,235.8z M249.6,235.8c-8.2,0-14.9,6.7-14.9,14.9s6.7,14.9,14.9,14.9c8.2,0,14.9-6.7,14.9-14.9
		S257.9,235.8,249.6,235.8z M300.2,250.7c0-8.1-6.5-14.8-14.7-14.9c5.7-5.8,5.6-15.1-0.1-20.9c-5.8-5.8-15.1-5.8-20.9-0.1
		c-0.1-8.1-6.7-14.7-14.9-14.7c-8.1,0-14.8,6.5-14.9,14.7c-5.8-5.7-15.1-5.6-20.9,0.1s-5.8,15.1-0.1,20.9
		c-8.1,0.1-14.7,6.7-14.7,14.9s6.6,14.8,14.7,14.9c-5.7,5.8-5.6,15.1,0.1,20.9c5.8,5.8,15.1,5.8,20.9,0.1
		c0.1,8.1,6.7,14.7,14.9,14.7c8.1,0,14.8-6.5,14.9-14.7c5.8,5.7,15.1,5.6,20.9-0.1c5.8-5.8,5.8-15.1,0.1-20.9
		C293.7,265.4,300.2,258.8,300.2,250.7z M264.4,265.4c-2.9,2.9-4.3,6.6-4.4,10.3c-2.7-2.6-6.3-4.2-10.4-4.2s-7.7,1.6-10.4,4.2
		c0-3.7-1.5-7.5-4.4-10.3c-2.8-2.8-6.6-4.3-10.3-4.4c2.6-2.7,4.2-6.3,4.2-10.4s-1.6-7.7-4.2-10.4c3.7-0.1,7.5-1.5,10.3-4.4
		c2.9-2.9,4.3-6.6,4.4-10.3c2.7,2.6,6.3,4.2,10.4,4.2c4,0,7.7-1.6,10.4-4.2c0,3.7,1.5,7.5,4.4,10.3c2.9,2.9,6.6,4.3,10.3,4.4
		c-2.6,2.7-4.2,6.3-4.2,10.4s1.6,7.7,4.2,10.4C270.9,261.1,267.2,262.5,264.4,265.4z M249.6,235.8c-8.2,0-14.9,6.7-14.9,14.9
		s6.7,14.9,14.9,14.9c8.2,0,14.9-6.7,14.9-14.9S257.9,235.8,249.6,235.8z M249.6,235.8c-8.2,0-14.9,6.7-14.9,14.9
		s6.7,14.9,14.9,14.9c8.2,0,14.9-6.7,14.9-14.9S257.9,235.8,249.6,235.8z M249.6,235.8c-8.2,0-14.9,6.7-14.9,14.9
		s6.7,14.9,14.9,14.9c8.2,0,14.9-6.7,14.9-14.9S257.9,235.8,249.6,235.8z M300.2,250.7c0-8.1-6.5-14.8-14.7-14.9
		c5.7-5.8,5.6-15.1-0.1-20.9c-5.8-5.8-15.1-5.8-20.9-0.1c-0.1-8.1-6.7-14.7-14.9-14.7c-8.1,0-14.8,6.5-14.9,14.7
		c-5.8-5.7-15.1-5.6-20.9,0.1s-5.8,15.1-0.1,20.9c-8.1,0.1-14.7,6.7-14.7,14.9s6.6,14.8,14.7,14.9c-5.7,5.8-5.6,15.1,0.1,20.9
		c5.8,5.8,15.1,5.8,20.9,0.1c0.1,8.1,6.7,14.7,14.9,14.7c8.1,0,14.8-6.5,14.9-14.7c5.8,5.7,15.1,5.6,20.9-0.1
		c5.8-5.8,5.8-15.1,0.1-20.9C293.7,265.4,300.2,258.8,300.2,250.7z M264.4,265.4c-2.9,2.9-4.3,6.6-4.4,10.3
		c-2.7-2.6-6.3-4.2-10.4-4.2s-7.7,1.6-10.4,4.2c0-3.7-1.5-7.5-4.4-10.3c-2.8-2.8-6.6-4.3-10.3-4.4c2.6-2.7,4.2-6.3,4.2-10.4
		s-1.6-7.7-4.2-10.4c3.7-0.1,7.5-1.5,10.3-4.4c2.9-2.9,4.3-6.6,4.4-10.3c2.7,2.6,6.3,4.2,10.4,4.2c4,0,7.7-1.6,10.4-4.2
		c0,3.7,1.5,7.5,4.4,10.3c2.9,2.9,6.6,4.3,10.3,4.4c-2.6,2.7-4.2,6.3-4.2,10.4s1.6,7.7,4.2,10.4
		C270.9,261.1,267.2,262.5,264.4,265.4z M249.6,235.8c-8.2,0-14.9,6.7-14.9,14.9s6.7,14.9,14.9,14.9c8.2,0,14.9-6.7,14.9-14.9
		S257.9,235.8,249.6,235.8z M249.6,235.8c-8.2,0-14.9,6.7-14.9,14.9s6.7,14.9,14.9,14.9c8.2,0,14.9-6.7,14.9-14.9
		S257.9,235.8,249.6,235.8z M249.6,235.8c-8.2,0-14.9,6.7-14.9,14.9s6.7,14.9,14.9,14.9c8.2,0,14.9-6.7,14.9-14.9
		S257.9,235.8,249.6,235.8z"/>
	<path d="M249.6,235.8c-8.2,0-14.9,6.7-14.9,14.9s6.7,14.9,14.9,14.9c8.2,0,14.9-6.7,14.9-14.9S257.9,235.8,249.6,235.8z
		 M249.6,235.8c-8.2,0-14.9,6.7-14.9,14.9s6.7,14.9,14.9,14.9c8.2,0,14.9-6.7,14.9-14.9S257.9,235.8,249.6,235.8z M300.2,250.7
		c0-8.1-6.5-14.8-14.7-14.9c5.7-5.8,5.6-15.1-0.1-20.9c-5.8-5.8-15.1-5.8-20.9-0.1c-0.1-8.1-6.7-14.7-14.9-14.7
		c-8.1,0-14.8,6.5-14.9,14.7c-5.8-5.7-15.1-5.6-20.9,0.1s-5.8,15.1-0.1,20.9c-8.1,0.1-14.7,6.7-14.7,14.9s6.6,14.8,14.7,14.9
		c-5.7,5.8-5.6,15.1,0.1,20.9c5.8,5.8,15.1,5.8,20.9,0.1c0.1,8.1,6.7,14.7,14.9,14.7c8.1,0,14.8-6.5,14.9-14.7
		c5.8,5.7,15.1,5.6,20.9-0.1c5.8-5.8,5.8-15.1,0.1-20.9C293.7,265.4,300.2,258.8,300.2,250.7z M264.4,265.4
		c-2.9,2.9-4.3,6.6-4.4,10.3c-2.7-2.6-6.3-4.2-10.4-4.2s-7.7,1.6-10.4,4.2c0-3.7-1.5-7.5-4.4-10.3c-2.8-2.8-6.6-4.3-10.3-4.4
		c2.6-2.7,4.2-6.3,4.2-10.4s-1.6-7.7-4.2-10.4c3.7-0.1,7.5-1.5,10.3-4.4c2.9-2.9,4.3-6.6,4.4-10.3c2.7,2.6,6.3,4.2,10.4,4.2
		c4,0,7.7-1.6,10.4-4.2c0,3.7,1.5,7.5,4.4,10.3c2.9,2.9,6.6,4.3,10.3,4.4c-2.6,2.7-4.2,6.3-4.2,10.4s1.6,7.7,4.2,10.4
		C270.9,261.1,267.2,262.5,264.4,265.4z M249.6,235.8c-8.2,0-14.9,6.7-14.9,14.9s6.7,14.9,14.9,14.9c8.2,0,14.9-6.7,14.9-14.9
		S257.9,235.8,249.6,235.8z M249.6,235.8c-8.2,0-14.9,6.7-14.9,14.9s6.7,14.9,14.9,14.9c8.2,0,14.9-6.7,14.9-14.9
		S257.9,235.8,249.6,235.8z M249.6,235.8c-8.2,0-14.9,6.7-14.9,14.9s6.7,14.9,14.9,14.9c8.2,0,14.9-6.7,14.9-14.9
		S257.9,235.8,249.6,235.8z M249.6,235.8c-8.2,0-14.9,6.7-14.9,14.9s6.7,14.9,14.9,14.9c8.2,0,14.9-6.7,14.9-14.9
		S257.9,235.8,249.6,235.8z M249.6,235.8c-8.2,0-14.9,6.7-14.9,14.9s6.7,14.9,14.9,14.9c8.2,0,14.9-6.7,14.9-14.9
		S257.9,235.8,249.6,235.8z M300.2,250.7c0-8.1-6.5-14.8-14.7-14.9c5.7-5.8,5.6-15.1-0.1-20.9c-5.8-5.8-15.1-5.8-20.9-0.1
		c-0.1-8.1-6.7-14.7-14.9-14.7c-8.1,0-14.8,6.5-14.9,14.7c-5.8-5.7-15.1-5.6-20.9,0.1s-5.8,15.1-0.1,20.9
		c-8.1,0.1-14.7,6.7-14.7,14.9s6.6,14.8,14.7,14.9c-5.7,5.8-5.6,15.1,0.1,20.9c5.8,5.8,15.1,5.8,20.9,0.1
		c0.1,8.1,6.7,14.7,14.9,14.7c8.1,0,14.8-6.5,14.9-14.7c5.8,5.7,15.1,5.6,20.9-0.1c5.8-5.8,5.8-15.1,0.1-20.9
		C293.7,265.4,300.2,258.8,300.2,250.7z M264.4,265.4c-2.9,2.9-4.3,6.6-4.4,10.3c-2.7-2.6-6.3-4.2-10.4-4.2s-7.7,1.6-10.4,4.2
		c0-3.7-1.5-7.5-4.4-10.3c-2.8-2.8-6.6-4.3-10.3-4.4c2.6-2.7,4.2-6.3,4.2-10.4s-1.6-7.7-4.2-10.4c3.7-0.1,7.5-1.5,10.3-4.4
		c2.9-2.9,4.3-6.6,4.4-10.3c2.7,2.6,6.3,4.2,10.4,4.2c4,0,7.7-1.6,10.4-4.2c0,3.7,1.5,7.5,4.4,10.3c2.9,2.9,6.6,4.3,10.3,4.4
		c-2.6,2.7-4.2,6.3-4.2,10.4s1.6,7.7,4.2,10.4C270.9,261.1,267.2,262.5,264.4,265.4z M249.6,235.8c-8.2,0-14.9,6.7-14.9,14.9
		s6.7,14.9,14.9,14.9c8.2,0,14.9-6.7,14.9-14.9S257.9,235.8,249.6,235.8z M249.6,235.8c-8.2,0-14.9,6.7-14.9,14.9
		s6.7,14.9,14.9,14.9c8.2,0,14.9-6.7,14.9-14.9S257.9,235.8,249.6,235.8z M249.6,235.8c-8.2,0-14.9,6.7-14.9,14.9
		s6.7,14.9,14.9,14.9c8.2,0,14.9-6.7,14.9-14.9S257.9,235.8,249.6,235.8z M249.6,235.8c-8.2,0-14.9,6.7-14.9,14.9
		s6.7,14.9,14.9,14.9c8.2,0,14.9-6.7,14.9-14.9S257.9,235.8,249.6,235.8z M249.6,235.8c-8.2,0-14.9,6.7-14.9,14.9
		s6.7,14.9,14.9,14.9c8.2,0,14.9-6.7,14.9-14.9S257.9,235.8,249.6,235.8z M300.2,250.7c0-8.1-6.5-14.8-14.7-14.9
		c5.7-5.8,5.6-15.1-0.1-20.9c-5.8-5.8-15.1-5.8-20.9-0.1c-0.1-8.1-6.7-14.7-14.9-14.7c-8.1,0-14.8,6.5-14.9,14.7
		c-5.8-5.7-15.1-5.6-20.9,0.1s-5.8,15.1-0.1,20.9c-8.1,0.1-14.7,6.7-14.7,14.9s6.6,14.8,14.7,14.9c-5.7,5.8-5.6,15.1,0.1,20.9
		c5.8,5.8,15.1,5.8,20.9,0.1c0.1,8.1,6.7,14.7,14.9,14.7c8.1,0,14.8-6.5,14.9-14.7c5.8,5.7,15.1,5.6,20.9-0.1
		c5.8-5.8,5.8-15.1,0.1-20.9C293.7,265.4,300.2,258.8,300.2,250.7z M264.4,265.4c-2.9,2.9-4.3,6.6-4.4,10.3
		c-2.7-2.6-6.3-4.2-10.4-4.2s-7.7,1.6-10.4,4.2c0-3.7-1.5-7.5-4.4-10.3c-2.8-2.8-6.6-4.3-10.3-4.4c2.6-2.7,4.2-6.3,4.2-10.4
		s-1.6-7.7-4.2-10.4c3.7-0.1,7.5-1.5,10.3-4.4c2.9-2.9,4.3-6.6,4.4-10.3c2.7,2.6,6.3,4.2,10.4,4.2c4,0,7.7-1.6,10.4-4.2
		c0,3.7,1.5,7.5,4.4,10.3c2.9,2.9,6.6,4.3,10.3,4.4c-2.6,2.7-4.2,6.3-4.2,10.4s1.6,7.7,4.2,10.4
		C270.9,261.1,267.2,262.5,264.4,265.4z M249.6,235.8c-8.2,0-14.9,6.7-14.9,14.9s6.7,14.9,14.9,14.9c8.2,0,14.9-6.7,14.9-14.9
		S257.9,235.8,249.6,235.8z M436.2,290.3c-2.9-15-7.1-28.3-6.6-43.6c0.6-16.1,15.6-51.3,1.4-64.4c-2.5-2.3-5.5-3.3-8.8-3.4
		c0,0,0,0,0-0.1c1.1-1.2,2-2.5,2.6-4c4.6-11.7-6.7-22.4-14.9-28c-12.6-8.6-25.1-15-35.4-26.2c-10.9-11.8-25.2-47.3-44.6-46.5
		c-3.4,0.1-6.2,1.6-8.6,3.8v-0.1c-0.1-1.6-0.4-3.2-1-4.7c-5-11.5-20.6-11.1-30.4-9.3c-15,2.9-28.3,7.1-43.6,6.6
		c-16.1-0.6-51.3-15.6-64.4-1.3c-2.3,2.5-3.3,5.5-3.4,8.8c0,0,0,0-0.1-0.1c-1.2-1.1-2.5-2-4-2.6c-11.7-4.6-22.4,6.7-28,14.9
		c-8.6,12.6-15,25.1-26.2,35.4c-11.8,10.9-47.3,25.2-46.5,44.6c0.2,3.4,1.6,6.2,3.8,8.6h-0.1c-1.6,0.1-3.2,0.4-4.7,1
		c-11.5,5-11.1,20.6-9.3,30.4c2.9,15,7.1,28.3,6.6,43.6c-0.6,16.1-15.6,51.3-1.4,64.4c2.5,2.3,5.5,3.3,8.8,3.4c0,0,0,0-0.1,0
		c-1.1,1.2-2,2.5-2.6,4c-4.6,11.7,6.7,22.4,14.9,28c12.6,8.6,25.1,15,35.4,26.2c10.9,11.8,25.2,47.4,44.6,46.5
		c3.4-0.1,6.2-1.6,8.6-3.8c0,0,0,0,0,0.1c0.1,1.6,0.4,3.2,1,4.7c5,11.5,20.6,11.1,30.4,9.3c15-2.9,28.3-7.1,43.6-6.6
		c16.1,0.6,51.3,15.6,64.4,1.4c2.3-2.5,3.3-5.5,3.4-8.8c0,0,0,0,0,0c1.2,1.1,2.5,2,4,2.6c11.7,4.6,22.4-6.7,28-14.9
		c8.6-12.6,15-25.1,26.2-35.4c11.8-10.9,47.3-25.2,46.5-44.6c-0.1-3.4-1.6-6.2-3.8-8.6c0,0,0,0,0.1,0c1.6-0.1,3.2-0.4,4.7-1
		C438.5,315.7,438.1,300.1,436.2,290.3z M313.9,117.9c3.1-3.7,7.5-8.4,12.6-8.9c9.1-0.9,15.1,10.7,17.6,17.8
		c3.2,8.9,4.3,17,4.6,26.4c0,0,38.9,0.8,43.9,17.7c1.3,4.5-3.1,9.1-6,11.9c-5.7,5.5-12.5,9.8-19.3,13.8
		c-9.7,5.6-19.9,10.1-30.1,14.6c-5.1,2.3-10.3,4.5-15.8,5.8c-4.8,1.1-12.4,3.3-15.9-1.4c-3.3-4.5-2.9-12.7-1.2-17.8
		c0,0-5.1,0.8-5.7,0.9c-3.3,0.5-7,0.2-10-1.4c-3-1.6-5.1-4.7-5.3-8.1c-0.4-8.3,2.6-16.3,5.5-23.9C295,148.9,302.6,131.3,313.9,117.9
		z M307.8,250c0,31.9-25.9,57.8-57.8,57.8s-57.8-25.9-57.8-57.8s25.9-57.8,57.8-57.8S307.8,218.1,307.8,250z M203.8,96.2
		c5.9-7.1,18.2-3.2,25,0.1c8.5,4.1,15.1,9,21.9,15.4c0,0,28.1-26.9,43.5-18.5c4.1,2.2,4.2,8.6,4.1,12.7c-0.2,7.9-1.9,15.8-3.9,23.4
		c-2.9,10.9-6.9,21.2-10.9,31.7c-2,5.2-4.1,10.5-7.1,15.3c-2.5,4.2-6.4,11.1-12.3,10.2c-5.5-0.8-11-7-13.4-11.7c0,0-3.1,4.2-3.4,4.6
		c-2,2.7-4.8,5.1-8.1,6c-3.2,0.9-6.9,0.3-9.5-2c-6.2-5.6-9.6-13.4-13-20.8c-7.1-15.9-14.2-33.7-15.7-51.1
		C200.7,106.6,200.5,100.1,203.8,96.2z M125.7,156.2c8.9-3.1,17-4.3,26.4-4.6c0,0,0.8-38.9,17.7-43.9c4.5-1.3,9.1,3.2,11.9,6
		c5.5,5.7,9.8,12.5,13.7,19.3c5.6,9.7,10.1,19.9,14.7,30.1c2.2,5.1,4.5,10.3,5.8,15.8c1.1,4.8,3.3,12.4-1.4,15.9
		c-4.5,3.3-12.7,2.9-17.8,1.2c0,0,0.8,5.1,0.9,5.7c0.5,3.3,0.2,7-1.4,10c-1.6,3-4.7,5.1-8.1,5.3c-8.3,0.4-16.3-2.6-23.9-5.5
		c-16.3-6.2-33.8-13.8-47.2-25.1c-3.7-3.1-8.4-7.5-8.9-12.6C107.1,164.7,118.6,158.7,125.7,156.2z M95.1,296.6
		c-7.1-5.9-3.2-18.2,0.1-25c4.1-8.5,9-15.1,15.4-21.9c0,0-26.9-28.1-18.5-43.5c2.2-4.1,8.7-4.2,12.7-4.1c7.9,0.1,15.8,1.9,23.4,3.9
		c10.9,2.9,21.2,6.9,31.7,10.9c5.2,2,10.5,4.1,15.3,7.1c4.2,2.6,11.1,6.4,10.2,12.3c-0.8,5.5-7,11.1-11.7,13.4c0,0,4.2,3.1,4.6,3.4
		c2.7,2,5.1,4.8,6,8.1c0.9,3.2,0.3,6.9-2,9.5c-5.6,6.2-13.4,9.6-20.8,13c-15.9,7.1-33.7,14.2-51.1,15.7
		C105.5,299.6,99,299.9,95.1,296.6z M185.4,383.5c-3.1,3.7-7.5,8.4-12.6,8.9c-9.1,0.9-15.1-10.6-17.6-17.8c-3.2-8.9-4.3-17-4.6-26.4
		c0,0-38.9-0.8-43.9-17.7c-1.3-4.5,3.2-9.1,6-11.9c5.7-5.5,12.5-9.8,19.3-13.7c9.7-5.6,19.9-10.1,30.1-14.7
		c5.1-2.2,10.3-4.5,15.8-5.8c4.8-1.1,12.4-3.3,15.9,1.5c3.3,4.5,2.9,12.7,1.2,17.8c0,0,5.1-0.8,5.7-0.9c3.3-0.5,7-0.2,10,1.4
		c3,1.6,5.1,4.7,5.3,8.1c0.4,8.3-2.6,16.3-5.5,23.9C204.3,352.5,196.7,370.1,185.4,383.5z M295.5,405.3c-5.9,7.1-18.2,3.1-25-0.1
		c-8.5-4.1-15.1-9-21.9-15.4c0,0-28.1,26.9-43.5,18.5c-4.1-2.2-4.2-8.6-4.1-12.7c0.1-7.9,1.9-15.8,3.9-23.4
		c2.9-10.9,6.9-21.2,10.9-31.7c2-5.2,4.1-10.5,7.1-15.3c2.6-4.2,6.4-11.1,12.3-10.2c5.5,0.8,11,7,13.4,11.7c0,0,3.1-4.2,3.4-4.6
		c2-2.7,4.8-5.1,8.1-6c3.2-0.9,6.9-0.3,9.5,2c6.2,5.6,9.6,13.4,13,20.8c7.1,15.9,14.2,33.7,15.7,51.1
		C298.5,394.9,298.8,401.3,295.5,405.3z M373.6,345.2c-8.9,3.1-17,4.3-26.4,4.6c0,0-0.8,38.9-17.7,43.9c-4.5,1.3-9.1-3.1-11.9-6
		c-5.5-5.7-9.8-12.5-13.7-19.3c-5.6-9.7-10.1-19.9-14.7-30.1c-2.3-5.1-4.5-10.3-5.8-15.8c-1.1-4.8-3.3-12.4,1.5-15.9
		c4.5-3.3,12.7-2.9,17.8-1.2c0,0-0.8-5.1-0.9-5.7c-0.5-3.3-0.2-7,1.4-10c1.6-3,4.7-5.1,8.1-5.3c8.3-0.4,16.3,2.6,23.9,5.5
		c16.2,6.2,33.8,13.8,47.2,25c3.7,3.1,8.4,7.5,8.9,12.6C392.2,336.7,380.7,342.7,373.6,345.2z M407.2,295.3
		c-2.2,4.1-8.6,4.2-12.6,4.1c-7.9-0.1-15.8-1.9-23.4-3.9c-10.9-2.9-21.2-6.9-31.7-11c-5.2-2-10.5-4.1-15.3-7.1
		c-4.2-2.5-11.1-6.4-10.2-12.2c0.8-5.5,7-11.1,11.7-13.4c0,0-4.2-3.1-4.6-3.4c-2.7-2-5.1-4.8-6-8.1c-1-3.2-0.3-6.9,2-9.5
		c5.5-6.2,13.4-9.6,20.8-13c15.9-7.1,33.7-14.2,51.1-15.7c4.8-0.4,11.3-0.7,15.2,2.6c7.1,5.9,3.1,18.2-0.1,25
		c-4.1,8.5-9,15.1-15.4,21.9C388.7,251.8,415.6,279.9,407.2,295.3z M285.4,214.9c-5.8-5.8-15.1-5.8-20.9-0.1
		c-0.1-8.1-6.7-14.7-14.9-14.7c-8.1,0-14.8,6.5-14.9,14.7c-5.8-5.7-15.1-5.6-20.9,0.1s-5.8,15.1-0.1,20.9
		c-8.1,0.1-14.7,6.7-14.7,14.9c0,8.2,6.6,14.8,14.7,14.9c-5.7,5.8-5.6,15.1,0.1,20.9c5.8,5.8,15.1,5.8,20.9,0.1
		c0.1,8.1,6.7,14.7,14.9,14.7c8.1,0,14.8-6.5,14.9-14.7c5.8,5.7,15.1,5.6,20.9-0.1c5.8-5.8,5.8-15.1,0.1-20.9
		c8.1-0.1,14.7-6.7,14.7-14.9s-6.5-14.8-14.7-14.9C291.2,230,291.2,220.6,285.4,214.9z M264.4,265.4c-2.9,2.9-4.3,6.6-4.4,10.3
		c-2.7-2.6-6.3-4.2-10.4-4.2s-7.7,1.6-10.4,4.2c0-3.7-1.5-7.5-4.4-10.3c-2.8-2.8-6.6-4.3-10.3-4.4c2.6-2.7,4.2-6.3,4.2-10.4
		s-1.6-7.7-4.2-10.4c3.7-0.1,7.5-1.5,10.3-4.4c2.9-2.9,4.3-6.6,4.4-10.3c2.7,2.6,6.3,4.2,10.4,4.2c4,0,7.7-1.6,10.4-4.2
		c0,3.7,1.5,7.5,4.4,10.3c2.9,2.9,6.6,4.3,10.3,4.4c-2.6,2.7-4.2,6.3-4.2,10.4s1.6,7.7,4.2,10.4
		C270.9,261.1,267.2,262.5,264.4,265.4z M249.6,235.8c-8.2,0-14.9,6.7-14.9,14.9s6.7,14.9,14.9,14.9c8.2,0,14.9-6.7,14.9-14.9
		S257.9,235.8,249.6,235.8z M436.2,290.3c-2.9-15-7.1-28.3-6.6-43.6c0.6-16.1,15.6-51.3,1.4-64.4c-2.5-2.3-5.5-3.3-8.8-3.4
		c0,0,0,0,0-0.1c1.1-1.2,2-2.5,2.6-4c4.6-11.7-6.7-22.4-14.9-28c-12.6-8.6-25.1-15-35.4-26.2c-10.9-11.8-25.2-47.3-44.6-46.5
		c-3.4,0.1-6.2,1.6-8.6,3.8v-0.1c-0.1-1.6-0.4-3.2-1-4.7c-5-11.5-20.6-11.1-30.4-9.3c-15,2.9-28.3,7.1-43.6,6.6
		c-16.1-0.6-51.3-15.6-64.4-1.3c-2.3,2.5-3.3,5.5-3.4,8.8c0,0,0,0-0.1-0.1c-1.2-1.1-2.5-2-4-2.6c-11.7-4.6-22.4,6.7-28,14.9
		c-8.6,12.6-15,25.1-26.2,35.4c-11.8,10.9-47.3,25.2-46.5,44.6c0.2,3.4,1.6,6.2,3.8,8.6h-0.1c-1.6,0.1-3.2,0.4-4.7,1
		c-11.5,5-11.1,20.6-9.3,30.4c2.9,15,7.1,28.3,6.6,43.6c-0.6,16.1-15.6,51.3-1.4,64.4c2.5,2.3,5.5,3.3,8.8,3.4c0,0,0,0-0.1,0
		c-1.1,1.2-2,2.5-2.6,4c-4.6,11.7,6.7,22.4,14.9,28c12.6,8.6,25.1,15,35.4,26.2c10.9,11.8,25.2,47.4,44.6,46.5
		c3.4-0.1,6.2-1.6,8.6-3.8c0,0,0,0,0,0.1c0.1,1.6,0.4,3.2,1,4.7c5,11.5,20.6,11.1,30.4,9.3c15-2.9,28.3-7.1,43.6-6.6
		c16.1,0.6,51.3,15.6,64.4,1.4c2.3-2.5,3.3-5.5,3.4-8.8c0,0,0,0,0,0c1.2,1.1,2.5,2,4,2.6c11.7,4.6,22.4-6.7,28-14.9
		c8.6-12.6,15-25.1,26.2-35.4c11.8-10.9,47.3-25.2,46.5-44.6c-0.1-3.4-1.6-6.2-3.8-8.6c0,0,0,0,0.1,0c1.6-0.1,3.2-0.4,4.7-1
		C438.5,315.7,438.1,300.1,436.2,290.3z M313.9,117.9c3.1-3.7,7.5-8.4,12.6-8.9c9.1-0.9,15.1,10.7,17.6,17.8
		c3.2,8.9,4.3,17,4.6,26.4c0,0,38.9,0.8,43.9,17.7c1.3,4.5-3.1,9.1-6,11.9c-5.7,5.5-12.5,9.8-19.3,13.8
		c-9.7,5.6-19.9,10.1-30.1,14.6c-5.1,2.3-10.3,4.5-15.8,5.8c-4.8,1.1-12.4,3.3-15.9-1.4c-3.3-4.5-2.9-12.7-1.2-17.8
		c0,0-5.1,0.8-5.7,0.9c-3.3,0.5-7,0.2-10-1.4c-3-1.6-5.1-4.7-5.3-8.1c-0.4-8.3,2.6-16.3,5.5-23.9C295,148.9,302.6,131.3,313.9,117.9
		z M307.8,250c0,31.9-25.9,57.8-57.8,57.8s-57.8-25.9-57.8-57.8s25.9-57.8,57.8-57.8S307.8,218.1,307.8,250z M203.8,96.2
		c5.9-7.1,18.2-3.2,25,0.1c8.5,4.1,15.1,9,21.9,15.4c0,0,28.1-26.9,43.5-18.5c4.1,2.2,4.2,8.6,4.1,12.7c-0.2,7.9-1.9,15.8-3.9,23.4
		c-2.9,10.9-6.9,21.2-10.9,31.7c-2,5.2-4.1,10.5-7.1,15.3c-2.5,4.2-6.4,11.1-12.3,10.2c-5.5-0.8-11-7-13.4-11.7c0,0-3.1,4.2-3.4,4.6
		c-2,2.7-4.8,5.1-8.1,6c-3.2,0.9-6.9,0.3-9.5-2c-6.2-5.6-9.6-13.4-13-20.8c-7.1-15.9-14.2-33.7-15.7-51.1
		C200.7,106.6,200.5,100.1,203.8,96.2z M125.7,156.2c8.9-3.1,17-4.3,26.4-4.6c0,0,0.8-38.9,17.7-43.9c4.5-1.3,9.1,3.2,11.9,6
		c5.5,5.7,9.8,12.5,13.7,19.3c5.6,9.7,10.1,19.9,14.7,30.1c2.2,5.1,4.5,10.3,5.8,15.8c1.1,4.8,3.3,12.4-1.4,15.9
		c-4.5,3.3-12.7,2.9-17.8,1.2c0,0,0.8,5.1,0.9,5.7c0.5,3.3,0.2,7-1.4,10c-1.6,3-4.7,5.1-8.1,5.3c-8.3,0.4-16.3-2.6-23.9-5.5
		c-16.3-6.2-33.8-13.8-47.2-25.1c-3.7-3.1-8.4-7.5-8.9-12.6C107.1,164.7,118.6,158.7,125.7,156.2z M95.1,296.6
		c-7.1-5.9-3.2-18.2,0.1-25c4.1-8.5,9-15.1,15.4-21.9c0,0-26.9-28.1-18.5-43.5c2.2-4.1,8.7-4.2,12.7-4.1c7.9,0.1,15.8,1.9,23.4,3.9
		c10.9,2.9,21.2,6.9,31.7,10.9c5.2,2,10.5,4.1,15.3,7.1c4.2,2.6,11.1,6.4,10.2,12.3c-0.8,5.5-7,11.1-11.7,13.4c0,0,4.2,3.1,4.6,3.4
		c2.7,2,5.1,4.8,6,8.1c0.9,3.2,0.3,6.9-2,9.5c-5.6,6.2-13.4,9.6-20.8,13c-15.9,7.1-33.7,14.2-51.1,15.7
		C105.5,299.6,99,299.9,95.1,296.6z M185.4,383.5c-3.1,3.7-7.5,8.4-12.6,8.9c-9.1,0.9-15.1-10.6-17.6-17.8c-3.2-8.9-4.3-17-4.6-26.4
		c0,0-38.9-0.8-43.9-17.7c-1.3-4.5,3.2-9.1,6-11.9c5.7-5.5,12.5-9.8,19.3-13.7c9.7-5.6,19.9-10.1,30.1-14.7
		c5.1-2.2,10.3-4.5,15.8-5.8c4.8-1.1,12.4-3.3,15.9,1.5c3.3,4.5,2.9,12.7,1.2,17.8c0,0,5.1-0.8,5.7-0.9c3.3-0.5,7-0.2,10,1.4
		c3,1.6,5.1,4.7,5.3,8.1c0.4,8.3-2.6,16.3-5.5,23.9C204.3,352.5,196.7,370.1,185.4,383.5z M295.5,405.3c-5.9,7.1-18.2,3.1-25-0.1
		c-8.5-4.1-15.1-9-21.9-15.4c0,0-28.1,26.9-43.5,18.5c-4.1-2.2-4.2-8.6-4.1-12.7c0.1-7.9,1.9-15.8,3.9-23.4
		c2.9-10.9,6.9-21.2,10.9-31.7c2-5.2,4.1-10.5,7.1-15.3c2.6-4.2,6.4-11.1,12.3-10.2c5.5,0.8,11,7,13.4,11.7c0,0,3.1-4.2,3.4-4.6
		c2-2.7,4.8-5.1,8.1-6c3.2-0.9,6.9-0.3,9.5,2c6.2,5.6,9.6,13.4,13,20.8c7.1,15.9,14.2,33.7,15.7,51.1
		C298.5,394.9,298.8,401.3,295.5,405.3z M373.6,345.2c-8.9,3.1-17,4.3-26.4,4.6c0,0-0.8,38.9-17.7,43.9c-4.5,1.3-9.1-3.1-11.9-6
		c-5.5-5.7-9.8-12.5-13.7-19.3c-5.6-9.7-10.1-19.9-14.7-30.1c-2.3-5.1-4.5-10.3-5.8-15.8c-1.1-4.8-3.3-12.4,1.5-15.9
		c4.5-3.3,12.7-2.9,17.8-1.2c0,0-0.8-5.1-0.9-5.7c-0.5-3.3-0.2-7,1.4-10c1.6-3,4.7-5.1,8.1-5.3c8.3-0.4,16.3,2.6,23.9,5.5
		c16.2,6.2,33.8,13.8,47.2,25c3.7,3.1,8.4,7.5,8.9,12.6C392.2,336.7,380.7,342.7,373.6,345.2z M407.2,295.3
		c-2.2,4.1-8.6,4.2-12.6,4.1c-7.9-0.1-15.8-1.9-23.4-3.9c-10.9-2.9-21.2-6.9-31.7-11c-5.2-2-10.5-4.1-15.3-7.1
		c-4.2-2.5-11.1-6.4-10.2-12.2c0.8-5.5,7-11.1,11.7-13.4c0,0-4.2-3.1-4.6-3.4c-2.7-2-5.1-4.8-6-8.1c-1-3.2-0.3-6.9,2-9.5
		c5.5-6.2,13.4-9.6,20.8-13c15.9-7.1,33.7-14.2,51.1-15.7c4.8-0.4,11.3-0.7,15.2,2.6c7.1,5.9,3.1,18.2-0.1,25
		c-4.1,8.5-9,15.1-15.4,21.9C388.7,251.8,415.6,279.9,407.2,295.3z M250,27.9C127.3,27.9,27.9,127.3,27.9,250S127.3,472.1,250,472.1
		S472.1,372.6,472.1,250S372.6,27.9,250,27.9z M250,456.1c-113.8,0-206.1-92.3-206.1-206.1S136.2,43.9,250,43.9
		S456.1,136.2,456.1,250S363.8,456.1,250,456.1z M285.4,214.9c-5.8-5.8-15.1-5.8-20.9-0.1c-0.1-8.1-6.7-14.7-14.9-14.7
		c-8.1,0-14.8,6.5-14.9,14.7c-5.8-5.7-15.1-5.6-20.9,0.1s-5.8,15.1-0.1,20.9c-8.1,0.1-14.7,6.7-14.7,14.9c0,8.2,6.6,14.8,14.7,14.9
		c-5.7,5.8-5.6,15.1,0.1,20.9c5.8,5.8,15.1,5.8,20.9,0.1c0.1,8.1,6.7,14.7,14.9,14.7c8.1,0,14.8-6.5,14.9-14.7
		c5.8,5.7,15.1,5.6,20.9-0.1c5.8-5.8,5.8-15.1,0.1-20.9c8.1-0.1,14.7-6.7,14.7-14.9s-6.5-14.8-14.7-14.9
		C291.2,230,291.2,220.6,285.4,214.9z M264.4,265.4c-2.9,2.9-4.3,6.6-4.4,10.3c-2.7-2.6-6.3-4.2-10.4-4.2s-7.7,1.6-10.4,4.2
		c0-3.7-1.5-7.5-4.4-10.3c-2.8-2.8-6.6-4.3-10.3-4.4c2.6-2.7,4.2-6.3,4.2-10.4s-1.6-7.7-4.2-10.4c3.7-0.1,7.5-1.5,10.3-4.4
		c2.9-2.9,4.3-6.6,4.4-10.3c2.7,2.6,6.3,4.2,10.4,4.2c4,0,7.7-1.6,10.4-4.2c0,3.7,1.5,7.5,4.4,10.3c2.9,2.9,6.6,4.3,10.3,4.4
		c-2.6,2.7-4.2,6.3-4.2,10.4s1.6,7.7,4.2,10.4C270.9,261.1,267.2,262.5,264.4,265.4z M249.6,235.8c-8.2,0-14.9,6.7-14.9,14.9
		s6.7,14.9,14.9,14.9c8.2,0,14.9-6.7,14.9-14.9S257.9,235.8,249.6,235.8z M300.2,250.7c0-8.1-6.5-14.8-14.7-14.9
		c5.7-5.8,5.6-15.1-0.1-20.9c-5.8-5.8-15.1-5.8-20.9-0.1c-0.1-8.1-6.7-14.7-14.9-14.7c-8.1,0-14.8,6.5-14.9,14.7
		c-5.8-5.7-15.1-5.6-20.9,0.1s-5.8,15.1-0.1,20.9c-8.1,0.1-14.7,6.7-14.7,14.9s6.6,14.8,14.7,14.9c-5.7,5.8-5.6,15.1,0.1,20.9
		c5.8,5.8,15.1,5.8,20.9,0.1c0.1,8.1,6.7,14.7,14.9,14.7c8.1,0,14.8-6.5,14.9-14.7c5.8,5.7,15.1,5.6,20.9-0.1
		c5.8-5.8,5.8-15.1,0.1-20.9C293.7,265.4,300.2,258.8,300.2,250.7z M264.4,265.4c-2.9,2.9-4.3,6.6-4.4,10.3
		c-2.7-2.6-6.3-4.2-10.4-4.2s-7.7,1.6-10.4,4.2c0-3.7-1.5-7.5-4.4-10.3c-2.8-2.8-6.6-4.3-10.3-4.4c2.6-2.7,4.2-6.3,4.2-10.4
		s-1.6-7.7-4.2-10.4c3.7-0.1,7.5-1.5,10.3-4.4c2.9-2.9,4.3-6.6,4.4-10.3c2.7,2.6,6.3,4.2,10.4,4.2c4,0,7.7-1.6,10.4-4.2
		c0,3.7,1.5,7.5,4.4,10.3c2.9,2.9,6.6,4.3,10.3,4.4c-2.6,2.7-4.2,6.3-4.2,10.4s1.6,7.7,4.2,10.4
		C270.9,261.1,267.2,262.5,264.4,265.4z M249.6,235.8c-8.2,0-14.9,6.7-14.9,14.9s6.7,14.9,14.9,14.9c8.2,0,14.9-6.7,14.9-14.9
		S257.9,235.8,249.6,235.8z M436.2,290.3c-2.9-15-7.1-28.3-6.6-43.6c0.6-16.1,15.6-51.3,1.4-64.4c-2.5-2.3-5.5-3.3-8.8-3.4
		c0,0,0,0,0-0.1c1.1-1.2,2-2.5,2.6-4c4.6-11.7-6.7-22.4-14.9-28c-12.6-8.6-25.1-15-35.4-26.2c-10.9-11.8-25.2-47.3-44.6-46.5
		c-3.4,0.1-6.2,1.6-8.6,3.8v-0.1c-0.1-1.6-0.4-3.2-1-4.7c-5-11.5-20.6-11.1-30.4-9.3c-15,2.9-28.3,7.1-43.6,6.6
		c-16.1-0.6-51.3-15.6-64.4-1.3c-2.3,2.5-3.3,5.5-3.4,8.8c0,0,0,0-0.1-0.1c-1.2-1.1-2.5-2-4-2.6c-11.7-4.6-22.4,6.7-28,14.9
		c-8.6,12.6-15,25.1-26.2,35.4c-11.8,10.9-47.3,25.2-46.5,44.6c0.2,3.4,1.6,6.2,3.8,8.6h-0.1c-1.6,0.1-3.2,0.4-4.7,1
		c-11.5,5-11.1,20.6-9.3,30.4c2.9,15,7.1,28.3,6.6,43.6c-0.6,16.1-15.6,51.3-1.4,64.4c2.5,2.3,5.5,3.3,8.8,3.4c0,0,0,0-0.1,0
		c-1.1,1.2-2,2.5-2.6,4c-4.6,11.7,6.7,22.4,14.9,28c12.6,8.6,25.1,15,35.4,26.2c10.9,11.8,25.2,47.4,44.6,46.5
		c3.4-0.1,6.2-1.6,8.6-3.8c0,0,0,0,0,0.1c0.1,1.6,0.4,3.2,1,4.7c5,11.5,20.6,11.1,30.4,9.3c15-2.9,28.3-7.1,43.6-6.6
		c16.1,0.6,51.3,15.6,64.4,1.4c2.3-2.5,3.3-5.5,3.4-8.8c0,0,0,0,0,0c1.2,1.1,2.5,2,4,2.6c11.7,4.6,22.4-6.7,28-14.9
		c8.6-12.6,15-25.1,26.2-35.4c11.8-10.9,47.3-25.2,46.5-44.6c-0.1-3.4-1.6-6.2-3.8-8.6c0,0,0,0,0.1,0c1.6-0.1,3.2-0.4,4.7-1
		C438.5,315.7,438.1,300.1,436.2,290.3z M313.9,117.9c3.1-3.7,7.5-8.4,12.6-8.9c9.1-0.9,15.1,10.7,17.6,17.8
		c3.2,8.9,4.3,17,4.6,26.4c0,0,38.9,0.8,43.9,17.7c1.3,4.5-3.1,9.1-6,11.9c-5.7,5.5-12.5,9.8-19.3,13.8
		c-9.7,5.6-19.9,10.1-30.1,14.6c-5.1,2.3-10.3,4.5-15.8,5.8c-4.8,1.1-12.4,3.3-15.9-1.4c-3.3-4.5-2.9-12.7-1.2-17.8
		c0,0-5.1,0.8-5.7,0.9c-3.3,0.5-7,0.2-10-1.4c-3-1.6-5.1-4.7-5.3-8.1c-0.4-8.3,2.6-16.3,5.5-23.9C295,148.9,302.6,131.3,313.9,117.9
		z M307.8,250c0,31.9-25.9,57.8-57.8,57.8s-57.8-25.9-57.8-57.8s25.9-57.8,57.8-57.8S307.8,218.1,307.8,250z M203.8,96.2
		c5.9-7.1,18.2-3.2,25,0.1c8.5,4.1,15.1,9,21.9,15.4c0,0,28.1-26.9,43.5-18.5c4.1,2.2,4.2,8.6,4.1,12.7c-0.2,7.9-1.9,15.8-3.9,23.4
		c-2.9,10.9-6.9,21.2-10.9,31.7c-2,5.2-4.1,10.5-7.1,15.3c-2.5,4.2-6.4,11.1-12.3,10.2c-5.5-0.8-11-7-13.4-11.7c0,0-3.1,4.2-3.4,4.6
		c-2,2.7-4.8,5.1-8.1,6c-3.2,0.9-6.9,0.3-9.5-2c-6.2-5.6-9.6-13.4-13-20.8c-7.1-15.9-14.2-33.7-15.7-51.1
		C200.7,106.6,200.5,100.1,203.8,96.2z M125.7,156.2c8.9-3.1,17-4.3,26.4-4.6c0,0,0.8-38.9,17.7-43.9c4.5-1.3,9.1,3.2,11.9,6
		c5.5,5.7,9.8,12.5,13.7,19.3c5.6,9.7,10.1,19.9,14.7,30.1c2.2,5.1,4.5,10.3,5.8,15.8c1.1,4.8,3.3,12.4-1.4,15.9
		c-4.5,3.3-12.7,2.9-17.8,1.2c0,0,0.8,5.1,0.9,5.7c0.5,3.3,0.2,7-1.4,10c-1.6,3-4.7,5.1-8.1,5.3c-8.3,0.4-16.3-2.6-23.9-5.5
		c-16.3-6.2-33.8-13.8-47.2-25.1c-3.7-3.1-8.4-7.5-8.9-12.6C107.1,164.7,118.6,158.7,125.7,156.2z M95.1,296.6
		c-7.1-5.9-3.2-18.2,0.1-25c4.1-8.5,9-15.1,15.4-21.9c0,0-26.9-28.1-18.5-43.5c2.2-4.1,8.7-4.2,12.7-4.1c7.9,0.1,15.8,1.9,23.4,3.9
		c10.9,2.9,21.2,6.9,31.7,10.9c5.2,2,10.5,4.1,15.3,7.1c4.2,2.6,11.1,6.4,10.2,12.3c-0.8,5.5-7,11.1-11.7,13.4c0,0,4.2,3.1,4.6,3.4
		c2.7,2,5.1,4.8,6,8.1c0.9,3.2,0.3,6.9-2,9.5c-5.6,6.2-13.4,9.6-20.8,13c-15.9,7.1-33.7,14.2-51.1,15.7
		C105.5,299.6,99,299.9,95.1,296.6z M185.4,383.5c-3.1,3.7-7.5,8.4-12.6,8.9c-9.1,0.9-15.1-10.6-17.6-17.8c-3.2-8.9-4.3-17-4.6-26.4
		c0,0-38.9-0.8-43.9-17.7c-1.3-4.5,3.2-9.1,6-11.9c5.7-5.5,12.5-9.8,19.3-13.7c9.7-5.6,19.9-10.1,30.1-14.7
		c5.1-2.2,10.3-4.5,15.8-5.8c4.8-1.1,12.4-3.3,15.9,1.5c3.3,4.5,2.9,12.7,1.2,17.8c0,0,5.1-0.8,5.7-0.9c3.3-0.5,7-0.2,10,1.4
		c3,1.6,5.1,4.7,5.3,8.1c0.4,8.3-2.6,16.3-5.5,23.9C204.3,352.5,196.7,370.1,185.4,383.5z M295.5,405.3c-5.9,7.1-18.2,3.1-25-0.1
		c-8.5-4.1-15.1-9-21.9-15.4c0,0-28.1,26.9-43.5,18.5c-4.1-2.2-4.2-8.6-4.1-12.7c0.1-7.9,1.9-15.8,3.9-23.4
		c2.9-10.9,6.9-21.2,10.9-31.7c2-5.2,4.1-10.5,7.1-15.3c2.6-4.2,6.4-11.1,12.3-10.2c5.5,0.8,11,7,13.4,11.7c0,0,3.1-4.2,3.4-4.6
		c2-2.7,4.8-5.1,8.1-6c3.2-0.9,6.9-0.3,9.5,2c6.2,5.6,9.6,13.4,13,20.8c7.1,15.9,14.2,33.7,15.7,51.1
		C298.5,394.9,298.8,401.3,295.5,405.3z M373.6,345.2c-8.9,3.1-17,4.3-26.4,4.6c0,0-0.8,38.9-17.7,43.9c-4.5,1.3-9.1-3.1-11.9-6
		c-5.5-5.7-9.8-12.5-13.7-19.3c-5.6-9.7-10.1-19.9-14.7-30.1c-2.3-5.1-4.5-10.3-5.8-15.8c-1.1-4.8-3.3-12.4,1.5-15.9
		c4.5-3.3,12.7-2.9,17.8-1.2c0,0-0.8-5.1-0.9-5.7c-0.5-3.3-0.2-7,1.4-10c1.6-3,4.7-5.1,8.1-5.3c8.3-0.4,16.3,2.6,23.9,5.5
		c16.2,6.2,33.8,13.8,47.2,25c3.7,3.1,8.4,7.5,8.9,12.6C392.2,336.7,380.7,342.7,373.6,345.2z M407.2,295.3
		c-2.2,4.1-8.6,4.2-12.6,4.1c-7.9-0.1-15.8-1.9-23.4-3.9c-10.9-2.9-21.2-6.9-31.7-11c-5.2-2-10.5-4.1-15.3-7.1
		c-4.2-2.5-11.1-6.4-10.2-12.2c0.8-5.5,7-11.1,11.7-13.4c0,0-4.2-3.1-4.6-3.4c-2.7-2-5.1-4.8-6-8.1c-1-3.2-0.3-6.9,2-9.5
		c5.5-6.2,13.4-9.6,20.8-13c15.9-7.1,33.7-14.2,51.1-15.7c4.8-0.4,11.3-0.7,15.2,2.6c7.1,5.9,3.1,18.2-0.1,25
		c-4.1,8.5-9,15.1-15.4,21.9C388.7,251.8,415.6,279.9,407.2,295.3z M285.4,214.9c-5.8-5.8-15.1-5.8-20.9-0.1
		c-0.1-8.1-6.7-14.7-14.9-14.7c-8.1,0-14.8,6.5-14.9,14.7c-5.8-5.7-15.1-5.6-20.9,0.1s-5.8,15.1-0.1,20.9
		c-8.1,0.1-14.7,6.7-14.7,14.9c0,8.2,6.6,14.8,14.7,14.9c-5.7,5.8-5.6,15.1,0.1,20.9c5.8,5.8,15.1,5.8,20.9,0.1
		c0.1,8.1,6.7,14.7,14.9,14.7c8.1,0,14.8-6.5,14.9-14.7c5.8,5.7,15.1,5.6,20.9-0.1c5.8-5.8,5.8-15.1,0.1-20.9
		c8.1-0.1,14.7-6.7,14.7-14.9s-6.5-14.8-14.7-14.9C291.2,230,291.2,220.6,285.4,214.9z M264.4,265.4c-2.9,2.9-4.3,6.6-4.4,10.3
		c-2.7-2.6-6.3-4.2-10.4-4.2s-7.7,1.6-10.4,4.2c0-3.7-1.5-7.5-4.4-10.3c-2.8-2.8-6.6-4.3-10.3-4.4c2.6-2.7,4.2-6.3,4.2-10.4
		s-1.6-7.7-4.2-10.4c3.7-0.1,7.5-1.5,10.3-4.4c2.9-2.9,4.3-6.6,4.4-10.3c2.7,2.6,6.3,4.2,10.4,4.2c4,0,7.7-1.6,10.4-4.2
		c0,3.7,1.5,7.5,4.4,10.3c2.9,2.9,6.6,4.3,10.3,4.4c-2.6,2.7-4.2,6.3-4.2,10.4s1.6,7.7,4.2,10.4
		C270.9,261.1,267.2,262.5,264.4,265.4z M249.6,235.8c-8.2,0-14.9,6.7-14.9,14.9s6.7,14.9,14.9,14.9c8.2,0,14.9-6.7,14.9-14.9
		S257.9,235.8,249.6,235.8z M249.6,235.8c-8.2,0-14.9,6.7-14.9,14.9s6.7,14.9,14.9,14.9c8.2,0,14.9-6.7,14.9-14.9
		S257.9,235.8,249.6,235.8z M249.6,235.8c-8.2,0-14.9,6.7-14.9,14.9s6.7,14.9,14.9,14.9c8.2,0,14.9-6.7,14.9-14.9
		S257.9,235.8,249.6,235.8z M300.2,250.7c0-8.1-6.5-14.8-14.7-14.9c5.7-5.8,5.6-15.1-0.1-20.9c-5.8-5.8-15.1-5.8-20.9-0.1
		c-0.1-8.1-6.7-14.7-14.9-14.7c-8.1,0-14.8,6.5-14.9,14.7c-5.8-5.7-15.1-5.6-20.9,0.1s-5.8,15.1-0.1,20.9
		c-8.1,0.1-14.7,6.7-14.7,14.9s6.6,14.8,14.7,14.9c-5.7,5.8-5.6,15.1,0.1,20.9c5.8,5.8,15.1,5.8,20.9,0.1
		c0.1,8.1,6.7,14.7,14.9,14.7c8.1,0,14.8-6.5,14.9-14.7c5.8,5.7,15.1,5.6,20.9-0.1c5.8-5.8,5.8-15.1,0.1-20.9
		C293.7,265.4,300.2,258.8,300.2,250.7z M264.4,265.4c-2.9,2.9-4.3,6.6-4.4,10.3c-2.7-2.6-6.3-4.2-10.4-4.2s-7.7,1.6-10.4,4.2
		c0-3.7-1.5-7.5-4.4-10.3c-2.8-2.8-6.6-4.3-10.3-4.4c2.6-2.7,4.2-6.3,4.2-10.4s-1.6-7.7-4.2-10.4c3.7-0.1,7.5-1.5,10.3-4.4
		c2.9-2.9,4.3-6.6,4.4-10.3c2.7,2.6,6.3,4.2,10.4,4.2c4,0,7.7-1.6,10.4-4.2c0,3.7,1.5,7.5,4.4,10.3c2.9,2.9,6.6,4.3,10.3,4.4
		c-2.6,2.7-4.2,6.3-4.2,10.4s1.6,7.7,4.2,10.4C270.9,261.1,267.2,262.5,264.4,265.4z M249.6,235.8c-8.2,0-14.9,6.7-14.9,14.9
		s6.7,14.9,14.9,14.9c8.2,0,14.9-6.7,14.9-14.9S257.9,235.8,249.6,235.8z M249.6,235.8c-8.2,0-14.9,6.7-14.9,14.9
		s6.7,14.9,14.9,14.9c8.2,0,14.9-6.7,14.9-14.9S257.9,235.8,249.6,235.8z M249.6,235.8c-8.2,0-14.9,6.7-14.9,14.9
		s6.7,14.9,14.9,14.9c8.2,0,14.9-6.7,14.9-14.9S257.9,235.8,249.6,235.8z M300.2,250.7c0-8.1-6.5-14.8-14.7-14.9
		c5.7-5.8,5.6-15.1-0.1-20.9c-5.8-5.8-15.1-5.8-20.9-0.1c-0.1-8.1-6.7-14.7-14.9-14.7c-8.1,0-14.8,6.5-14.9,14.7
		c-5.8-5.7-15.1-5.6-20.9,0.1s-5.8,15.1-0.1,20.9c-8.1,0.1-14.7,6.7-14.7,14.9s6.6,14.8,14.7,14.9c-5.7,5.8-5.6,15.1,0.1,20.9
		c5.8,5.8,15.1,5.8,20.9,0.1c0.1,8.1,6.7,14.7,14.9,14.7c8.1,0,14.8-6.5,14.9-14.7c5.8,5.7,15.1,5.6,20.9-0.1
		c5.8-5.8,5.8-15.1,0.1-20.9C293.7,265.4,300.2,258.8,300.2,250.7z M264.4,265.4c-2.9,2.9-4.3,6.6-4.4,10.3
		c-2.7-2.6-6.3-4.2-10.4-4.2s-7.7,1.6-10.4,4.2c0-3.7-1.5-7.5-4.4-10.3c-2.8-2.8-6.6-4.3-10.3-4.4c2.6-2.7,4.2-6.3,4.2-10.4
		s-1.6-7.7-4.2-10.4c3.7-0.1,7.5-1.5,10.3-4.4c2.9-2.9,4.3-6.6,4.4-10.3c2.7,2.6,6.3,4.2,10.4,4.2c4,0,7.7-1.6,10.4-4.2
		c0,3.7,1.5,7.5,4.4,10.3c2.9,2.9,6.6,4.3,10.3,4.4c-2.6,2.7-4.2,6.3-4.2,10.4s1.6,7.7,4.2,10.4
		C270.9,261.1,267.2,262.5,264.4,265.4z M249.6,235.8c-8.2,0-14.9,6.7-14.9,14.9s6.7,14.9,14.9,14.9c8.2,0,14.9-6.7,14.9-14.9
		S257.9,235.8,249.6,235.8z M249.6,235.8c-8.2,0-14.9,6.7-14.9,14.9s6.7,14.9,14.9,14.9c8.2,0,14.9-6.7,14.9-14.9
		S257.9,235.8,249.6,235.8z M249.6,235.8c-8.2,0-14.9,6.7-14.9,14.9s6.7,14.9,14.9,14.9c8.2,0,14.9-6.7,14.9-14.9
		S257.9,235.8,249.6,235.8z"/>
	<path d="M300.2,250.7c0-8.1-6.5-14.8-14.7-14.9c5.7-5.8,5.6-15.1-0.1-20.9c-5.8-5.8-15.1-5.8-20.9-0.1c-0.1-8.1-6.7-14.7-14.9-14.7
		c-8.1,0-14.8,6.5-14.9,14.7c-5.8-5.7-15.1-5.6-20.9,0.1s-5.8,15.1-0.1,20.9c-8.1,0.1-14.7,6.7-14.7,14.9s6.6,14.8,14.7,14.9
		c-5.7,5.8-5.6,15.1,0.1,20.9c5.8,5.8,15.1,5.8,20.9,0.1c0.1,8.1,6.7,14.7,14.9,14.7c8.1,0,14.8-6.5,14.9-14.7
		c5.8,5.7,15.1,5.6,20.9-0.1c5.8-5.8,5.8-15.1,0.1-20.9C293.7,265.4,300.2,258.8,300.2,250.7z M282,265.4c-0.4-0.2-0.9-0.3-1.3-0.5
		l-16.9,16.9l-1.7,1.7l-0.2,0.2c-0.2-0.4-0.4-0.9-0.5-1.3h-26.6c0.2-0.4,0.3-0.9,0.5-1.3L217,263l-0.7-0.7c0.4-0.2,0.9-0.4,1.3-0.6
		v-26.6c0.4,0.2,0.9,0.3,1.3,0.5l18.8-18.8c0.2,0.4,0.4,0.9,0.6,1.3H265c-0.2,0.4-0.3,0.9-0.5,1.3l18.8,18.8
		c-0.4,0.2-0.9,0.4-1.3,0.6L282,265.4L282,265.4z M300.2,250.7c0-8.1-6.5-14.8-14.7-14.9c5.7-5.8,5.6-15.1-0.1-20.9
		c-5.8-5.8-15.1-5.8-20.9-0.1c-0.1-8.1-6.7-14.7-14.9-14.7c-8.1,0-14.8,6.5-14.9,14.7c-5.8-5.7-15.1-5.6-20.9,0.1
		s-5.8,15.1-0.1,20.9c-8.1,0.1-14.7,6.7-14.7,14.9s6.6,14.8,14.7,14.9c-5.7,5.8-5.6,15.1,0.1,20.9c5.8,5.8,15.1,5.8,20.9,0.1
		c0.1,8.1,6.7,14.7,14.9,14.7c8.1,0,14.8-6.5,14.9-14.7c5.8,5.7,15.1,5.6,20.9-0.1c5.8-5.8,5.8-15.1,0.1-20.9
		C293.7,265.4,300.2,258.8,300.2,250.7z M282,265.4c-0.4-0.2-0.9-0.3-1.3-0.5l-16.9,16.9l-1.7,1.7l-0.2,0.2
		c-0.2-0.4-0.4-0.9-0.5-1.3h-26.6c0.2-0.4,0.3-0.9,0.5-1.3L217,263l-0.7-0.7c0.4-0.2,0.9-0.4,1.3-0.6v-26.6c0.4,0.2,0.9,0.3,1.3,0.5
		l18.8-18.8c0.2,0.4,0.4,0.9,0.6,1.3H265c-0.2,0.4-0.3,0.9-0.5,1.3l18.8,18.8c-0.4,0.2-0.9,0.4-1.3,0.6L282,265.4L282,265.4z
		 M300.2,250.7c0-8.1-6.5-14.8-14.7-14.9c5.7-5.8,5.6-15.1-0.1-20.9c-5.8-5.8-15.1-5.8-20.9-0.1c-0.1-8.1-6.7-14.7-14.9-14.7
		c-8.1,0-14.8,6.5-14.9,14.7c-5.8-5.7-15.1-5.6-20.9,0.1s-5.8,15.1-0.1,20.9c-8.1,0.1-14.7,6.7-14.7,14.9s6.6,14.8,14.7,14.9
		c-5.7,5.8-5.6,15.1,0.1,20.9c5.8,5.8,15.1,5.8,20.9,0.1c0.1,8.1,6.7,14.7,14.9,14.7c8.1,0,14.8-6.5,14.9-14.7
		c5.8,5.7,15.1,5.6,20.9-0.1c5.8-5.8,5.8-15.1,0.1-20.9C293.7,265.4,300.2,258.8,300.2,250.7z M282,265.4c-0.4-0.2-0.9-0.3-1.3-0.5
		l-16.9,16.9l-1.7,1.7l-0.2,0.2c-0.2-0.4-0.4-0.9-0.5-1.3h-26.6c0.2-0.4,0.3-0.9,0.5-1.3L217,263l-0.7-0.7c0.4-0.2,0.9-0.4,1.3-0.6
		v-26.6c0.4,0.2,0.9,0.3,1.3,0.5l18.8-18.8c0.2,0.4,0.4,0.9,0.6,1.3H265c-0.2,0.4-0.3,0.9-0.5,1.3l18.8,18.8
		c-0.4,0.2-0.9,0.4-1.3,0.6L282,265.4L282,265.4z M300.2,250.7c0-8.1-6.5-14.8-14.7-14.9c5.7-5.8,5.6-15.1-0.1-20.9
		c-5.8-5.8-15.1-5.8-20.9-0.1c-0.1-8.1-6.7-14.7-14.9-14.7c-8.1,0-14.8,6.5-14.9,14.7c-5.8-5.7-15.1-5.6-20.9,0.1
		s-5.8,15.1-0.1,20.9c-8.1,0.1-14.7,6.7-14.7,14.9s6.6,14.8,14.7,14.9c-5.7,5.8-5.6,15.1,0.1,20.9c5.8,5.8,15.1,5.8,20.9,0.1
		c0.1,8.1,6.7,14.7,14.9,14.7c8.1,0,14.8-6.5,14.9-14.7c5.8,5.7,15.1,5.6,20.9-0.1c5.8-5.8,5.8-15.1,0.1-20.9
		C293.7,265.4,300.2,258.8,300.2,250.7z M282,265.4c-0.4-0.2-0.9-0.3-1.3-0.5l-16.9,16.9l-1.7,1.7l-0.2,0.2
		c-0.2-0.4-0.4-0.9-0.5-1.3h-26.6c0.2-0.4,0.3-0.9,0.5-1.3L217,263l-0.7-0.7c0.4-0.2,0.9-0.4,1.3-0.6v-26.6c0.4,0.2,0.9,0.3,1.3,0.5
		l18.8-18.8c0.2,0.4,0.4,0.9,0.6,1.3H265c-0.2,0.4-0.3,0.9-0.5,1.3l18.8,18.8c-0.4,0.2-0.9,0.4-1.3,0.6L282,265.4L282,265.4z
		 M436.2,290.3c-2.9-15-7.1-28.3-6.6-43.6c0.6-16.1,15.6-51.3,1.4-64.4c-2.5-2.3-5.5-3.3-8.8-3.4c0,0,0,0,0-0.1c1.1-1.2,2-2.5,2.6-4
		c4.6-11.7-6.7-22.4-14.9-28c-12.6-8.6-25.1-15-35.4-26.2c-10.9-11.8-25.2-47.3-44.6-46.5c-3.4,0.1-6.2,1.6-8.6,3.8v-0.1
		c-0.1-1.6-0.4-3.2-1-4.7c-5-11.5-20.6-11.1-30.4-9.3c-15,2.9-28.3,7.1-43.6,6.6c-16.1-0.6-51.3-15.6-64.4-1.3
		c-2.3,2.5-3.3,5.5-3.4,8.8c0,0,0,0-0.1-0.1c-1.2-1.1-2.5-2-4-2.6c-11.7-4.6-22.4,6.7-28,14.9c-8.6,12.6-15,25.1-26.2,35.4
		c-11.8,10.9-47.3,25.2-46.5,44.6c0.2,3.4,1.6,6.2,3.8,8.6h-0.1c-1.6,0.1-3.2,0.4-4.7,1c-11.5,5-11.1,20.6-9.3,30.4
		c2.9,15,7.1,28.3,6.6,43.6c-0.6,16.1-15.6,51.3-1.4,64.4c2.5,2.3,5.5,3.3,8.8,3.4c0,0,0,0-0.1,0c-1.1,1.2-2,2.5-2.6,4
		c-4.6,11.7,6.7,22.4,14.9,28c12.6,8.6,25.1,15,35.4,26.2c10.9,11.8,25.2,47.4,44.6,46.5c3.4-0.1,6.2-1.6,8.6-3.8c0,0,0,0,0,0.1
		c0.1,1.6,0.4,3.2,1,4.7c5,11.5,20.6,11.1,30.4,9.3c15-2.9,28.3-7.1,43.6-6.6c16.1,0.6,51.3,15.6,64.4,1.4c2.3-2.5,3.3-5.5,3.4-8.8
		c0,0,0,0,0,0c1.2,1.1,2.5,2,4,2.6c11.7,4.6,22.4-6.7,28-14.9c8.6-12.6,15-25.1,26.2-35.4c11.8-10.9,47.3-25.2,46.5-44.6
		c-0.1-3.4-1.6-6.2-3.8-8.6c0,0,0,0,0.1,0c1.6-0.1,3.2-0.4,4.7-1C438.5,315.7,438.1,300.1,436.2,290.3z M313.9,117.9
		c3.1-3.7,7.5-8.4,12.6-8.9c9.1-0.9,15.1,10.7,17.6,17.8c3.2,8.9,4.3,17,4.6,26.4c0,0,38.9,0.8,43.9,17.7c1.3,4.5-3.1,9.1-6,11.9
		c-5.7,5.5-12.5,9.8-19.3,13.8c-9.7,5.6-19.9,10.1-30.1,14.6c-5.1,2.3-10.3,4.5-15.8,5.8c-4.8,1.1-12.4,3.3-15.9-1.4
		c-3.3-4.5-2.9-12.7-1.2-17.8c0,0-5.1,0.8-5.7,0.9c-3.3,0.5-7,0.2-10-1.4c-3-1.6-5.1-4.7-5.3-8.1c-0.4-8.3,2.6-16.3,5.5-23.9
		C295,148.9,302.6,131.3,313.9,117.9z M307.8,250c0,31.9-25.9,57.8-57.8,57.8s-57.8-25.9-57.8-57.8s25.9-57.8,57.8-57.8
		S307.8,218.1,307.8,250z M203.8,96.2c5.9-7.1,18.2-3.2,25,0.1c8.5,4.1,15.1,9,21.9,15.4c0,0,28.1-26.9,43.5-18.5
		c4.1,2.2,4.2,8.6,4.1,12.7c-0.2,7.9-1.9,15.8-3.9,23.4c-2.9,10.9-6.9,21.2-10.9,31.7c-2,5.2-4.1,10.5-7.1,15.3
		c-2.5,4.2-6.4,11.1-12.3,10.2c-5.5-0.8-11-7-13.4-11.7c0,0-3.1,4.2-3.4,4.6c-2,2.7-4.8,5.1-8.1,6c-3.2,0.9-6.9,0.3-9.5-2
		c-6.2-5.6-9.6-13.4-13-20.8c-7.1-15.9-14.2-33.7-15.7-51.1C200.7,106.6,200.5,100.1,203.8,96.2z M125.7,156.2
		c8.9-3.1,17-4.3,26.4-4.6c0,0,0.8-38.9,17.7-43.9c4.5-1.3,9.1,3.2,11.9,6c5.5,5.7,9.8,12.5,13.7,19.3c5.6,9.7,10.1,19.9,14.7,30.1
		c2.2,5.1,4.5,10.3,5.8,15.8c1.1,4.8,3.3,12.4-1.4,15.9c-4.5,3.3-12.7,2.9-17.8,1.2c0,0,0.8,5.1,0.9,5.7c0.5,3.3,0.2,7-1.4,10
		c-1.6,3-4.7,5.1-8.1,5.3c-8.3,0.4-16.3-2.6-23.9-5.5c-16.3-6.2-33.8-13.8-47.2-25.1c-3.7-3.1-8.4-7.5-8.9-12.6
		C107.1,164.7,118.6,158.7,125.7,156.2z M95.1,296.6c-7.1-5.9-3.2-18.2,0.1-25c4.1-8.5,9-15.1,15.4-21.9c0,0-26.9-28.1-18.5-43.5
		c2.2-4.1,8.7-4.2,12.7-4.1c7.9,0.1,15.8,1.9,23.4,3.9c10.9,2.9,21.2,6.9,31.7,10.9c5.2,2,10.5,4.1,15.3,7.1
		c4.2,2.6,11.1,6.4,10.2,12.3c-0.8,5.5-7,11.1-11.7,13.4c0,0,4.2,3.1,4.6,3.4c2.7,2,5.1,4.8,6,8.1c0.9,3.2,0.3,6.9-2,9.5
		c-5.6,6.2-13.4,9.6-20.8,13c-15.9,7.1-33.7,14.2-51.1,15.7C105.5,299.6,99,299.9,95.1,296.6z M185.4,383.5
		c-3.1,3.7-7.5,8.4-12.6,8.9c-9.1,0.9-15.1-10.6-17.6-17.8c-3.2-8.9-4.3-17-4.6-26.4c0,0-38.9-0.8-43.9-17.7
		c-1.3-4.5,3.2-9.1,6-11.9c5.7-5.5,12.5-9.8,19.3-13.7c9.7-5.6,19.9-10.1,30.1-14.7c5.1-2.2,10.3-4.5,15.8-5.8
		c4.8-1.1,12.4-3.3,15.9,1.5c3.3,4.5,2.9,12.7,1.2,17.8c0,0,5.1-0.8,5.7-0.9c3.3-0.5,7-0.2,10,1.4c3,1.6,5.1,4.7,5.3,8.1
		c0.4,8.3-2.6,16.3-5.5,23.9C204.3,352.5,196.7,370.1,185.4,383.5z M295.5,405.3c-5.9,7.1-18.2,3.1-25-0.1
		c-8.5-4.1-15.1-9-21.9-15.4c0,0-28.1,26.9-43.5,18.5c-4.1-2.2-4.2-8.6-4.1-12.7c0.1-7.9,1.9-15.8,3.9-23.4
		c2.9-10.9,6.9-21.2,10.9-31.7c2-5.2,4.1-10.5,7.1-15.3c2.6-4.2,6.4-11.1,12.3-10.2c5.5,0.8,11,7,13.4,11.7c0,0,3.1-4.2,3.4-4.6
		c2-2.7,4.8-5.1,8.1-6c3.2-0.9,6.9-0.3,9.5,2c6.2,5.6,9.6,13.4,13,20.8c7.1,15.9,14.2,33.7,15.7,51.1
		C298.5,394.9,298.8,401.3,295.5,405.3z M373.6,345.2c-8.9,3.1-17,4.3-26.4,4.6c0,0-0.8,38.9-17.7,43.9c-4.5,1.3-9.1-3.1-11.9-6
		c-5.5-5.7-9.8-12.5-13.7-19.3c-5.6-9.7-10.1-19.9-14.7-30.1c-2.3-5.1-4.5-10.3-5.8-15.8c-1.1-4.8-3.3-12.4,1.5-15.9
		c4.5-3.3,12.7-2.9,17.8-1.2c0,0-0.8-5.1-0.9-5.7c-0.5-3.3-0.2-7,1.4-10c1.6-3,4.7-5.1,8.1-5.3c8.3-0.4,16.3,2.6,23.9,5.5
		c16.2,6.2,33.8,13.8,47.2,25c3.7,3.1,8.4,7.5,8.9,12.6C392.2,336.7,380.7,342.7,373.6,345.2z M407.2,295.3
		c-2.2,4.1-8.6,4.2-12.6,4.1c-7.9-0.1-15.8-1.9-23.4-3.9c-10.9-2.9-21.2-6.9-31.7-11c-5.2-2-10.5-4.1-15.3-7.1
		c-4.2-2.5-11.1-6.4-10.2-12.2c0.8-5.5,7-11.1,11.7-13.4c0,0-4.2-3.1-4.6-3.4c-2.7-2-5.1-4.8-6-8.1c-1-3.2-0.3-6.9,2-9.5
		c5.5-6.2,13.4-9.6,20.8-13c15.9-7.1,33.7-14.2,51.1-15.7c4.8-0.4,11.3-0.7,15.2,2.6c7.1,5.9,3.1,18.2-0.1,25
		c-4.1,8.5-9,15.1-15.4,21.9C388.7,251.8,415.6,279.9,407.2,295.3z M285.4,214.9c-5.8-5.8-15.1-5.8-20.9-0.1
		c-0.1-8.1-6.7-14.7-14.9-14.7c-8.1,0-14.8,6.5-14.9,14.7c-5.8-5.7-15.1-5.6-20.9,0.1s-5.8,15.1-0.1,20.9
		c-8.1,0.1-14.7,6.7-14.7,14.9c0,8.2,6.6,14.8,14.7,14.9c-5.7,5.8-5.6,15.1,0.1,20.9c5.8,5.8,15.1,5.8,20.9,0.1
		c0.1,8.1,6.7,14.7,14.9,14.7c8.1,0,14.8-6.5,14.9-14.7c5.8,5.7,15.1,5.6,20.9-0.1c5.8-5.8,5.8-15.1,0.1-20.9
		c8.1-0.1,14.7-6.7,14.7-14.9s-6.5-14.8-14.7-14.9C291.2,230,291.2,220.6,285.4,214.9z M282,265.4c-0.4-0.2-0.9-0.3-1.3-0.5
		l-16.9,16.9l-1.7,1.7l-0.2,0.2c-0.2-0.4-0.4-0.9-0.5-1.3h-26.6c0.2-0.4,0.3-0.9,0.5-1.3L217,263l-0.7-0.7c0.4-0.2,0.9-0.4,1.3-0.6
		v-26.6c0.4,0.2,0.9,0.3,1.3,0.5l18.8-18.8c0.2,0.4,0.4,0.9,0.6,1.3H265c-0.2,0.4-0.3,0.9-0.5,1.3l18.8,18.8
		c-0.4,0.2-0.9,0.4-1.3,0.6L282,265.4L282,265.4z M300.2,250.7c0-8.1-6.5-14.8-14.7-14.9c5.7-5.8,5.6-15.1-0.1-20.9
		c-5.8-5.8-15.1-5.8-20.9-0.1c-0.1-8.1-6.7-14.7-14.9-14.7c-8.1,0-14.8,6.5-14.9,14.7c-5.8-5.7-15.1-5.6-20.9,0.1
		s-5.8,15.1-0.1,20.9c-8.1,0.1-14.7,6.7-14.7,14.9s6.6,14.8,14.7,14.9c-5.7,5.8-5.6,15.1,0.1,20.9c5.8,5.8,15.1,5.8,20.9,0.1
		c0.1,8.1,6.7,14.7,14.9,14.7c8.1,0,14.8-6.5,14.9-14.7c5.8,5.7,15.1,5.6,20.9-0.1c5.8-5.8,5.8-15.1,0.1-20.9
		C293.7,265.4,300.2,258.8,300.2,250.7z M282,265.4c-0.4-0.2-0.9-0.3-1.3-0.5l-16.9,16.9l-1.7,1.7l-0.2,0.2
		c-0.2-0.4-0.4-0.9-0.5-1.3h-26.6c0.2-0.4,0.3-0.9,0.5-1.3L217,263l-0.7-0.7c0.4-0.2,0.9-0.4,1.3-0.6v-26.6c0.4,0.2,0.9,0.3,1.3,0.5
		l18.8-18.8c0.2,0.4,0.4,0.9,0.6,1.3H265c-0.2,0.4-0.3,0.9-0.5,1.3l18.8,18.8c-0.4,0.2-0.9,0.4-1.3,0.6L282,265.4L282,265.4z
		 M300.2,250.7c0-8.1-6.5-14.8-14.7-14.9c5.7-5.8,5.6-15.1-0.1-20.9c-5.8-5.8-15.1-5.8-20.9-0.1c-0.1-8.1-6.7-14.7-14.9-14.7
		c-8.1,0-14.8,6.5-14.9,14.7c-5.8-5.7-15.1-5.6-20.9,0.1s-5.8,15.1-0.1,20.9c-8.1,0.1-14.7,6.7-14.7,14.9s6.6,14.8,14.7,14.9
		c-5.7,5.8-5.6,15.1,0.1,20.9c5.8,5.8,15.1,5.8,20.9,0.1c0.1,8.1,6.7,14.7,14.9,14.7c8.1,0,14.8-6.5,14.9-14.7
		c5.8,5.7,15.1,5.6,20.9-0.1c5.8-5.8,5.8-15.1,0.1-20.9C293.7,265.4,300.2,258.8,300.2,250.7z M282,265.4c-0.4-0.2-0.9-0.3-1.3-0.5
		l-16.9,16.9l-1.7,1.7l-0.2,0.2c-0.2-0.4-0.4-0.9-0.5-1.3h-26.6c0.2-0.4,0.3-0.9,0.5-1.3L217,263l-0.7-0.7c0.4-0.2,0.9-0.4,1.3-0.6
		v-26.6c0.4,0.2,0.9,0.3,1.3,0.5l18.8-18.8c0.2,0.4,0.4,0.9,0.6,1.3H265c-0.2,0.4-0.3,0.9-0.5,1.3l18.8,18.8
		c-0.4,0.2-0.9,0.4-1.3,0.6L282,265.4L282,265.4z"/>
	<g>
		<path d="M264.5,250.7c0,8.2-6.7,14.9-14.9,14.9c-8.2,0-14.9-6.7-14.9-14.9s6.7-14.9,14.9-14.9
			C257.9,235.8,264.5,242.4,264.5,250.7z"/>
		<path d="M264.5,215c0,1.1-0.1,2.1-0.3,3.1c-0.6,2.9-2.1,5.5-4.2,7.6c-2.7,2.6-6.3,4.2-10.4,4.2s-7.7-1.6-10.4-4.2
			c-1.8-1.8-3.2-4-3.9-6.4c-0.4-1.3-0.6-2.8-0.6-4.2c0-0.1,0-0.1,0-0.2c0.1-8.1,6.7-14.7,14.9-14.7c8.1,0,14.8,6.5,14.9,14.7
			C264.5,214.8,264.5,214.9,264.5,215z"/>
		<path d="M239.3,225.6c0,3.7-1.5,7.5-4.4,10.3c-2.8,2.8-6.6,4.3-10.3,4.4c-2.4,0-4.8-0.5-7-1.6c-1.4-0.7-2.6-1.6-3.7-2.7
			c-0.1-0.1-0.1-0.1-0.1-0.1c-5.7-5.8-5.6-15.1,0.1-20.9s15.1-5.8,20.9-0.1c0.1,0.1,0.1,0.1,0.1,0.1c0.8,0.8,1.5,1.7,2.1,2.6
			C238.6,220,239.3,222.8,239.3,225.6z"/>
		<path d="M228.8,250.7c0,4-1.6,7.7-4.2,10.4c-1.6,1.7-3.6,3-5.9,3.7c-1.5,0.5-3.1,0.8-4.8,0.8c-0.1,0-0.1,0-0.2,0
			c-8.1-0.1-14.7-6.7-14.7-14.9s6.6-14.8,14.7-14.9c0.1,0,0.1,0,0.2,0c1.3,0,2.5,0.2,3.7,0.5c2.7,0.7,5.1,2.1,7,4.1
			C227.2,243,228.8,246.6,228.8,250.7z"/>
		<path d="M239.3,275.7c0,2.3-0.5,4.6-1.5,6.8c-0.7,1.4-1.6,2.8-2.8,4l-0.1,0.1c-5.8,5.7-15.1,5.6-20.9-0.1
			c-5.8-5.8-5.8-15.1-0.1-20.9c0.1,0,0.1-0.1,0.1-0.1c0.9-1,2-1.8,3.1-2.4c2.4-1.4,5-2,7.6-2c3.7,0,7.5,1.5,10.3,4.4
			C237.8,268.2,239.2,272,239.3,275.7z"/>
		<path d="M264.5,286.4c0,0.1,0,0.1,0,0.2c-0.1,8.1-6.7,14.7-14.9,14.7c-8.1,0-14.8-6.5-14.9-14.7c0-0.1,0-0.1,0-0.2
			c0-1.4,0.2-2.6,0.5-3.9c0.7-2.6,2.1-4.9,4-6.8c2.7-2.6,6.3-4.2,10.4-4.2c4,0,7.7,1.6,10.4,4.2c1.7,1.7,3,3.8,3.8,6.1
			C264.3,283.2,264.5,284.8,264.5,286.4z"/>
		<path d="M285.4,286.4c-5.8,5.8-15.1,5.8-20.9,0.1c0,0-0.1-0.1-0.1-0.1c-0.9-0.9-1.6-1.9-2.3-2.9c-1.4-2.4-2.1-5.1-2.1-7.8
			c0-3.7,1.5-7.5,4.4-10.3c2.9-2.9,6.6-4.3,10.3-4.4c2.5,0,5,0.6,7.3,1.8c1.2,0.7,2.4,1.5,3.4,2.5c0,0,0.1,0.1,0.1,0.1
			C291.2,271.4,291.2,280.7,285.4,286.4z"/>
		<path d="M300.2,250.7c0,8.1-6.5,14.8-14.7,14.9c-0.1,0-0.1,0-0.2,0c-1.1,0-2.3-0.1-3.3-0.4c-2.8-0.6-5.4-2.1-7.3-4.1
			c-2.6-2.7-4.2-6.3-4.2-10.4s1.6-7.7,4.2-10.4c1.8-1.9,4.1-3.3,6.7-4c1.3-0.4,2.6-0.5,4-0.5c0.1,0,0.1,0,0.2,0
			C293.7,235.9,300.2,242.5,300.2,250.7z"/>
		<path d="M285.6,235.8c0,0.1-0.1,0.1-0.1,0.1c-0.8,0.8-1.6,1.4-2.4,2c-2.5,1.6-5.4,2.4-8.3,2.4c-3.7,0-7.5-1.5-10.3-4.4
			s-4.3-6.6-4.4-10.3c0-2.6,0.6-5.2,1.9-7.6c0.6-1.1,1.5-2.2,2.4-3.2c0-0.1,0.1-0.1,0.1-0.1c5.8-5.7,15.1-5.6,20.9,0.1
			C291.2,220.6,291.2,230,285.6,235.8z"/>
	</g>
</g>
</svg>
